<?xml version="1.0" encoding="UTF-8" standalone="no"?>
<!-- Created with Inkscape (http://www.inkscape.org/) -->

<svg
   version="1.1"
   id="svg1"
   width="960"
   height="960"
   viewBox="0 0 960 960"
   xmlns:xlink="http://www.w3.org/1999/xlink"
   xmlns="http://www.w3.org/2000/svg"
   xmlns:svg="http://www.w3.org/2000/svg">
  <defs
     id="defs1">
    <linearGradient
       id="swatch13">
      <stop
         style="stop-color:#000000;stop-opacity:1;"
         offset="0"
         id="stop13" />
    </linearGradient>
    <linearGradient
       id="swatch10">
      <stop
         style="stop-color:#000000;stop-opacity:1;"
         offset="0"
         id="stop10" />
    </linearGradient>
    <linearGradient
       id="swatch9">
      <stop
         style="stop-color:#b59200;stop-opacity:1;"
         offset="0"
         id="stop9" />
    </linearGradient>
    <linearGradient
       id="swatch8">
      <stop
         style="stop-color:#39c639;stop-opacity:1;"
         offset="0"
         id="stop8" />
    </linearGradient>
    <linearGradient
       id="swatch7">
      <stop
         style="stop-color:#800000;stop-opacity:1;"
         offset="0"
         id="stop7" />
    </linearGradient>
    <linearGradient
       xlink:href="#swatch8"
       id="linearGradient8"
       x1="136.63054"
       y1="487.79746"
       x2="472.62728"
       y2="487.79746"
       gradientUnits="userSpaceOnUse" />
    <linearGradient
       xlink:href="#swatch9"
       id="linearGradient9"
       x1="381.97581"
       y1="490.77856"
       x2="771.73554"
       y2="490.77856"
       gradientUnits="userSpaceOnUse" />
    <linearGradient
       xlink:href="#swatch10"
       id="linearGradient10"
       x1="247.15717"
       y1="255.97142"
       x2="840.57715"
       y2="255.97142"
       gradientUnits="userSpaceOnUse" />
    <linearGradient
       xlink:href="#swatch10"
       id="linearGradient11"
       x1="136.63054"
       y1="487.79745"
       x2="472.62729"
       y2="487.79745"
       gradientUnits="userSpaceOnUse" />
    <linearGradient
       xlink:href="#swatch10"
       id="linearGradient12"
       x1="381.9758"
       y1="490.77856"
       x2="771.73553"
       y2="490.77856"
       gradientUnits="userSpaceOnUse" />
    <linearGradient
       xlink:href="#swatch10"
       id="linearGradient13"
       x1="115.27504"
       y1="740.14093"
       x2="662.15588"
       y2="740.14093"
       gradientUnits="userSpaceOnUse" />
  </defs>
  <path
     style="fill:#800000;stroke:url(#linearGradient10);stroke-width:5;stroke-dasharray:none;stroke-dashoffset:0"
     d="m 352.21843,58.976109 c 8.71692,3.02362 17.89397,4.032311 26.2116,8.191126 4.99587,2.497935 -2.99622,1.298726 4.91468,3.276451 3.06501,0.766253 6.85737,0.647566 9.82935,1.638225 2.38066,0.793553 10.40168,8.477292 13.1058,9.829352 0.97685,0.488424 2.24035,-0.345368 3.27645,0 1.69691,0.565635 3.28944,2.463833 4.91468,3.27645 2.01383,1.006913 4.53908,0.631313 6.5529,1.638226 1.38147,0.690736 1.81118,2.788026 3.27645,3.27645 2.37129,0.790429 4.39816,0.560856 6.5529,1.638225 1.07664,0.538318 2.19982,2.738133 3.27645,3.276451 0.97685,0.488424 2.2996,-0.488425 3.27645,0 2.44077,1.220381 5.58728,4.046726 8.19113,4.914676 1.0361,0.345369 2.36773,-0.605816 3.27645,0 5.98599,3.990659 -1.75654,2.398179 3.27645,4.914679 8.66752,4.33376 18.33796,9.30105 27.84983,13.1058 3.40118,1.36047 6.27554,4.02622 9.82935,4.91467 1.05954,0.26489 2.1843,0 3.27645,0 2.1843,0.54608 4.41692,0.92623 6.5529,1.63823 1.25218,0.41739 5.30073,2.85906 6.5529,3.27645 3.43435,1.14478 7.98731,0.47813 11.46758,1.63823 1.46527,0.48842 1.81118,2.78802 3.27645,3.27645 1.96587,0.65529 4.58703,-0.65529 6.5529,0 5.21884,1.73961 10.38865,0.18643 14.74403,1.63822 0.73264,0.24421 0.90559,1.39401 1.63822,1.63823 5.16844,1.72281 14.27611,0 19.65871,0 10.48757,0 27.18819,2.78815 36.04095,-1.63823 1.31058,-0.65529 3.6041,0.65529 4.91468,0 1.38147,-0.69074 1.89498,-2.58571 3.27645,-3.27645 0.48842,-0.24421 1.25209,0.38613 1.63823,0 0.38613,-0.38613 -0.38614,-1.25209 0,-1.63822 0.38613,-0.38614 1.25209,0.38613 1.63822,0 1.11154,-1.11154 -0.74964,-5.05362 0,-6.55291 2.70038,-5.40075 4.10167,-8.20333 6.5529,-13.1058 1.57867,-3.15734 0.0232,-8.23753 1.63823,-11.467575 1.24912,-2.498256 4.30505,-1.638225 6.5529,-1.638225 0.67456,0 4.48103,-0.433648 4.91467,0 0.66766,0.667661 0.80838,13.08433 1.63823,14.74403 1.33343,2.66686 3.09658,5.46398 4.91467,8.19112 1.7506,2.62589 5.37439,2.55766 6.55291,4.91468 0.24421,0.48842 -0.38614,1.25209 0,1.63822 0.54607,0.54608 4.3686,1.09215 4.91467,1.63823 0.38613,0.38613 -0.38613,1.25209 0,1.63823 0.38613,0.38613 1.25209,-0.38614 1.63823,0 2.14271,2.14271 3.38351,4.9682 6.5529,6.5529 2.90494,1.45247 27.89471,-1.59334 29.48805,0 0.77227,0.77226 -0.48842,2.2996 0,3.27645 0.24421,0.48842 1.25209,-0.38614 1.63823,0 1.46034,1.46034 0.7683,4.81306 1.63822,6.5529 0.98294,1.96587 3.93174,2.9488 4.91468,4.91467 0.24421,0.48843 -0.38613,1.2521 0,1.63823 0.38613,0.38613 1.1498,-0.24421 1.63822,0 0.88389,0.44194 9.1617,7.52347 9.82936,8.19113 0.38613,0.38613 -0.38614,1.25209 0,1.63822 0.359,0.35901 7.26249,4.45036 8.19112,4.91468 2.76295,1.38147 4.08165,4.69946 6.5529,6.5529 4.69274,3.51955 13.84899,6.25455 19.65871,8.19112 4.43105,1.47702 7.76419,4.70121 11.46757,6.5529 3.70371,1.85186 9.49777,-0.16579 13.1058,1.63823 2.47195,1.23597 3.49664,2.2577 6.55291,3.27645 5.57081,1.85694 14.44916,-2.60477 19.6587,0 0.69074,0.34537 0.90559,1.39401 1.63822,1.63823 4.47944,1.49314 6.71775,-0.73669 11.46758,1.63822 1.74744,0.87372 4.80546,-0.87372 6.5529,0 1.38147,0.69074 1.89498,2.58571 3.27645,3.27645 0.97685,0.48843 2.2996,-0.48842 3.27645,0 1.28833,0.64416 5.79972,2.52327 6.5529,3.27645 0.38614,0.38614 -0.38613,1.25209 0,1.63823 0.68649,0.68648 3.92182,1.14179 4.91468,1.63822 4.50875,2.25438 9.78786,8.06666 11.46758,13.1058 0.28979,0.86939 0.14581,6.26128 0,6.55291 -0.48843,0.97684 -2.29961,-0.48843 -3.27645,0 -0.71927,0.35963 -2.55719,1.27859 -3.27645,1.63822 -5.03299,2.51649 2.70954,0.92401 -3.27646,4.91468 -1.36308,0.90872 -3.75627,-1.1584 -4.91467,0 -0.81744,0.81743 0,6.90838 0,8.19112 0,3.36882 -0.25952,3.7955 -1.63823,6.5529 -0.65529,1.31058 0.65529,3.6041 0,4.91468 -0.92211,1.84422 -6.36644,4.00233 -8.19112,4.91468 -7.99703,3.99851 -25.34685,-10.69411 -29.48806,-6.55291 -0.9241,0.9241 0.43642,5.24366 0,6.55291 -1.43202,4.29605 -1.88602,8.93451 -3.27645,13.1058 -3.95545,11.86635 0.47231,-2.58284 -3.27645,4.91467 -1.52761,3.05522 -2.20779,10.96849 -3.27645,13.10581 -0.69074,1.38147 -2.78802,1.81117 -3.27645,3.27645 -0.72576,2.17726 1.04002,6.11108 0,8.19112 -3.45152,6.90305 -4.91467,13.10209 -4.91467,21.29693 0,4.85621 -2.09421,15.92628 1.63822,19.6587 0.92565,0.92566 5.33254,2.05609 6.5529,3.27645 0.69746,0.69747 2.61428,5.40271 4.91468,6.5529 1.71865,0.85933 6.94581,0.39292 8.19112,1.63823 0.38614,0.38613 -0.38613,1.25209 0,1.63823 0.54344,0.54343 5.5856,2.79279 6.5529,3.27645 6.81791,3.40895 -1.75132,-0.1131 1.63823,3.27645 0.38613,0.38613 1.25209,-0.38614 1.63822,0 0.38614,0.38613 -0.38613,1.25209 0,1.63822 0.29104,0.29104 3.75143,2.1132 4.91468,3.27645 3.24542,-0.16353 0.77481,2.41303 1.63823,3.27645 3.38954,3.38955 -0.1325,-5.17967 3.27645,1.63823 0.65529,1.31058 -0.65529,3.60409 0,4.91467 0.24421,0.48843 1.25209,-0.38613 1.63822,0 1.54454,1.54454 0.69074,4.4807 0,6.5529 -0.39784,1.19352 -8.56762,11.84408 -9.82935,13.10581 -0.38613,0.38613 -1.25209,-0.38614 -1.63823,0 -0.81911,0.81911 0.81912,4.09556 0,4.91467 -0.38613,0.38614 -1.25209,-0.38613 -1.63822,0 -2.36303,2.36303 1.55447,11.63509 0,14.74403 -1.19461,2.38922 -2.62071,2.62071 -3.27645,3.27645 -0.38613,0.38613 0.38613,1.25209 0,1.63823 -0.38613,0.38613 -1.39401,-0.48843 -1.63823,0 -0.48842,0.97684 0.48843,2.2996 0,3.27645 -0.0291,0.0582 -15.32592,-0.52817 -16.38225,0 -0.69074,0.34536 -0.94749,1.29285 -1.63822,1.63822 -0.97685,0.48843 -2.50419,-0.77227 -3.27645,0 -1.64044,1.64043 1.54996,18.197 0,21.29693 -0.34537,0.69074 -1.29286,0.94749 -1.63823,1.63822 -0.48842,0.97685 0.77227,2.50419 0,3.27646 -2.3487,2.34869 -9.5062,1.63822 -13.1058,1.63822 -4.31841,0 -14.34598,1.83725 -18.02048,0 -5.49484,-2.74742 -11.17857,-5.58928 -16.38225,-8.19113 -6.8179,-3.40895 1.75132,0.1131 -1.63823,-3.27645 -0.60723,-0.60723 -5.5408,-1.13217 -6.5529,-1.63822 -3.49998,-1.74999 -1.7422,-5.01866 -3.27645,-6.5529 -0.38613,-0.38614 -1.25209,0.38613 -1.63822,0 -0.85241,-0.85241 0,-5.16774 0,-6.5529 0,-7.46688 0.0473,-6.64751 3.27645,-13.10581 0.48842,-0.97684 -0.48843,-2.2996 0,-3.27645 2.43449,-4.86899 13.26747,-9.506 9.82935,-16.38225 -0.48843,-0.97685 -2.2996,0.48843 -3.27645,0 -0.57963,-0.28981 -2.69683,-2.98664 -3.27645,-3.27645 -0.99287,-0.49643 -4.22819,-0.95174 -4.91468,-1.63822 -0.38613,-0.38614 0.38613,-1.2521 0,-1.63823 -0.68649,-0.68649 -3.92181,-1.14179 -4.91467,-1.63822 -2.19417,-1.09709 -2.26998,-3.9082 -3.27646,-4.91468 -0.38613,-0.38613 -1.1498,0.24421 -1.63822,0 -2.62116,-1.31058 -3.93174,-5.24232 -6.5529,-6.5529 -2.01263,-1.00632 -8.34843,-1.79553 -9.82935,-3.27645 -0.38614,-0.38614 0.38613,-1.25209 0,-1.63823 -0.14111,-0.14111 -14.8174,-9.30773 -16.38226,-9.82935 -4.49124,-1.49708 -4.59869,0.9771 -9.82935,-1.63822 -1.38147,-0.69074 -1.89497,-2.58572 -3.27645,-3.27645 -1.40105,-0.70053 -3.51362,-0.9377 -4.91467,-1.63823 -0.94988,-0.47494 -5.41117,-4.41818 -6.5529,-3.27645 -0.66074,0.66073 -0.74739,8.04768 -1.63823,9.82935 -1.24952,2.49903 -3.69305,4.10965 -4.91468,6.5529 -1.47194,2.94389 2.20344,10.90237 0,13.1058 -0.38613,0.38614 -1.09215,0 -1.63822,0 0,1.09215 0.48842,2.29961 0,3.27645 -0.48843,0.97685 -2.50418,-0.77226 -3.27645,0 -0.38613,0.38614 0.24421,1.14981 0,1.63823 -0.34537,0.69074 -1.39401,0.90559 -1.63823,1.63823 -0.34536,1.0361 0.48843,2.2996 0,3.27645 -0.1597,0.3194 -2.92098,1.28276 -3.27645,1.63822 -0.38613,0.38613 0.24422,1.1498 0,1.63823 -1.19461,2.38922 -2.62071,2.62071 -3.27645,3.27645 -0.94951,0.94951 -2.32693,5.60338 -3.27645,6.5529 -0.77226,0.77226 -2.1843,0 -3.27645,0 -1.09215,0 -2.50418,0.77226 -3.27645,0 -0.38613,-0.38614 0.38613,-1.25209 0,-1.63823 -0.86342,-0.86342 -2.41303,-0.7748 -3.27645,-1.63822 -0.38613,-0.38614 0.38613,-1.25209 0,-1.63823 -3.38955,-3.38954 0.1325,5.17968 -3.27645,-1.63822 -0.24421,-0.48843 0.38613,-1.2521 0,-1.63823 -0.77227,-0.77227 -2.2996,0.48843 -3.27645,0 -1.82469,-0.91234 -7.26902,-3.07045 -8.19113,-4.91467 -0.24421,-0.48843 0.38614,-1.2521 0,-1.63823 -0.38613,-0.38613 -1.25209,0.38613 -1.63822,0 -3.60696,-3.60696 3.58257,-9.46942 4.91467,-11.46758 0.95788,-1.43681 0.68035,-3.47785 1.63823,-4.91467 1.68692,-2.53038 3.61921,-3.96198 4.91467,-6.5529 2.46643,-4.93284 -6.67729,-16.75545 -8.19112,-21.29693 -0.65529,-1.96587 0.65529,-4.58703 0,-6.5529 -1.3581,-4.0743 -2.68757,-14.15515 -4.91468,-16.38226 -0.63831,-0.63831 -5.55318,0 -6.5529,0 -1.96772,0 -6.46854,0.8613 -8.19112,0 -0.69074,-0.34536 -0.94749,-1.29285 -1.63823,-1.63822 -0.97767,-0.48883 -20.20632,-2.72883 -21.29693,-1.63823 -1.36519,1.36519 1.36519,6.82594 0,8.19113 -0.7005,0.7005 -11.6929,0.70645 -13.1058,0 -0.69074,-0.34537 -0.90559,-1.39401 -1.63823,-1.63822 -3.03567,-1.0119 -29.57006,-0.082 -31.12628,-1.63823 -3.38954,-3.38955 5.17968,0.1325 -1.63822,-3.27645 -2.88444,-1.44222 -7.06856,-0.25783 -9.82935,-1.63823 -0.42651,-0.21325 -1.99581,-2.91886 -3.27645,-1.63822 -1.54851,1.54851 1.44388,16.77094 0,19.6587 -0.24421,0.48843 -1.25209,-0.38613 -1.63823,0 -0.77226,0.77227 0.77227,2.50419 0,3.27645 -0.38613,0.38614 -1.25209,-0.38613 -1.63822,0 -1.22036,1.22036 -2.3508,5.62725 -3.27645,6.5529 -1.07399,1.07399 -5.73215,0.81748 -6.5529,1.63823 -0.38614,0.38613 0.38613,1.25209 0,1.63822 -0.77227,0.77227 -2.29961,-0.48842 -3.27646,0 -0.69073,0.34537 -0.94748,1.29286 -1.63822,1.63823 -0.95571,0.47786 -10.81355,0.65402 -11.46758,0 -0.38613,-0.38613 0.38614,-1.25209 0,-1.63823 -0.44325,-0.44325 -5.63906,-4.45775 -6.5529,-4.91467 -2.2597,-1.12985 -1.46535,1.98398 -3.27645,-1.63823 -0.24421,-0.48842 0.38613,-1.25209 0,-1.63822 -0.60723,-0.60724 -5.5408,-1.13218 -6.5529,-1.63823 -4.38183,-2.19091 -10.23458,-11.26496 -16.38225,-8.19112 -3.51558,1.75779 -0.0754,1.78902 -1.63823,4.91467 -0.24421,0.48843 -1.25209,-0.38613 -1.63822,0 -0.38614,0.38614 0.38613,1.25209 0,1.63823 -0.65574,0.65573 -2.08184,0.88722 -3.27645,3.27645 -0.48843,0.97685 0.77226,2.50418 0,3.27645 -3.38955,3.38954 0.1325,-5.17968 -3.27645,1.63822 -0.97596,1.95192 -1.79704,6.71172 -3.27645,8.19113 -0.38614,0.38613 -1.2521,-0.38613 -1.63823,0 -0.77227,0.77227 0.48842,2.2996 0,3.27645 -0.69074,1.38147 -2.58571,1.89498 -3.27645,3.27645 -0.48842,0.97685 0.48842,2.2996 0,3.27645 -1.10658,2.21316 -2.21364,4.42729 -3.27645,6.5529 -0.37544,0.75088 -7.68178,9.57468 -8.19113,9.82935 -0.48842,0.24422 -1.39401,-0.48842 -1.63822,0 -0.48843,0.97685 0.48842,2.29961 0,3.27645 -0.24421,0.48843 -1.25209,-0.38613 -1.63823,0 -0.38613,0.38614 0.24421,1.14981 0,1.63823 -1.54669,3.09339 -5.24356,3.60534 -6.5529,4.91468 -0.92565,0.92565 -2.05609,5.33254 -3.27645,6.5529 -0.81911,0.81911 -2.45734,0.81911 -3.27645,1.63822 -1.01002,1.01003 1.08764,6.5529 -3.27645,6.5529 -0.54608,0 0,-1.09215 0,-1.63822 0,-1.09215 -1.09215,-4.3686 -1.63823,-4.91468 -0.38613,-0.38613 -1.39401,0.48843 -1.63822,0 -1.31058,-2.62116 1.31058,-7.20819 0,-9.82935 -0.24421,-0.48842 -1.25209,0.38613 -1.63823,0 -1.29877,-1.29878 0.83342,-6.52429 0,-8.19113 -2.12072,-4.24144 -2.77742,-8.83129 -4.91467,-13.1058 -0.48843,-0.97685 0.77227,-2.50418 0,-3.27645 -0.38614,-0.38613 -1.25209,0.38613 -1.63823,0 -0.38613,-0.38613 0.38614,-1.25209 0,-1.63822 -0.38613,-0.38614 -1.1498,0.24421 -1.63822,0 -4.42859,-2.2143 -5.62591,-0.23708 -9.82935,-1.63823 -2.18433,-0.72811 -4.45523,-2.22761 -6.5529,-3.27645 -3.10895,-1.55447 -12.381,2.36303 -14.74403,0 -0.38614,-0.38613 0.38613,-1.25209 0,-1.63822 -0.71494,-0.71495 -8.24773,-4.12387 -9.82935,-4.91468 -0.97685,-0.48842 -2.50419,0.77227 -3.27645,0 -0.38614,-0.38613 0.38613,-1.25209 0,-1.63823 -1.47942,-1.47941 -6.23922,-2.30049 -8.19113,-3.27645 -2.19416,-1.09708 -2.26997,-3.90819 -3.27645,-4.91467 -1.52112,-1.52112 -18.27044,-5.80303 -19.6587,-1.63823 -0.51806,1.55416 0.73263,3.44941 0,4.91468 -0.51656,1.03311 -5.61274,7.72104 -6.5529,8.19112 -1.20668,0.60334 -8.36914,4.73667 -9.82936,3.27646 -0.38613,-0.38614 0.38614,-1.2521 0,-1.63823 -0.38613,-0.38613 -1.25209,0.38613 -1.63822,0 -0.38614,-0.38613 0.24421,-1.1498 0,-1.63823 -3.40895,-6.8179 0.11309,1.75133 -3.27645,-1.63822 -0.68649,-0.68649 -1.1418,-3.92181 -1.63823,-4.91468 -1.31745,-2.6349 -6.91088,-3.63443 -8.19112,-4.91467 -0.77227,-0.77227 0.34536,-2.24035 0,-3.27645 -1.27582,-3.82745 -3.18266,-8.00355 -4.91468,-11.46758 -1.8111,-3.62221 -1.01675,-0.50838 -3.27645,-1.63822 -6.8179,-3.40896 1.75132,0.11309 -1.63823,-3.27646 -0.38613,-0.38613 -1.1498,0.24422 -1.63822,0 -4.21041,-2.1052 -4.91468,-5.75982 -4.91468,-9.82935 0,-1.1011 -0.48341,-3.94785 0,-4.91467 1.40995,-2.8199 6.4809,0 9.82936,0 2.34647,0 13.25061,-1.49342 14.74402,0 0.38614,0.38613 -0.24421,1.1498 0,1.63822 1.07569,2.15139 4.81999,2.41 6.5529,3.27645 0.69074,0.34537 0.94749,1.29286 1.63823,1.63823 0.98912,0.49456 4.15738,-0.75729 4.91467,0 0.38614,0.38613 -0.38613,1.25209 0,1.63822 0.75094,0.75094 11.52781,4.85445 13.10581,3.27645 0.81911,-0.81911 -0.81912,-4.09556 0,-4.91467 2.22126,-2.22127 17.84039,2.3673 19.6587,3.27645 0.96832,0.48416 7.37241,4.09517 8.19113,3.27645 0.38613,-0.38613 -0.24422,-1.1498 0,-1.63823 0.95416,-1.90832 2.32228,-3.00635 3.27645,-4.91467 0.7859,-1.5718 -0.0918,-3.09278 1.63822,-6.5529 1.52901,-3.05802 -1.52901,-8.40956 0,-11.46758 2.85323,-5.70646 4.49686,-8.57589 6.5529,-14.74403 2.95133,-8.85396 -1.76889,-6.61823 -4.91467,-8.19112 -0.69074,-0.34537 -0.94749,-1.29286 -1.63823,-1.63823 -2.87685,-1.43842 -21.52301,3.98252 -26.2116,1.63823 -3.51558,-1.75779 -0.0754,-1.78902 -1.63823,-4.91468 -0.24421,-0.48842 -1.1498,0.24421 -1.63822,0 -6.8179,-3.40895 1.75132,0.1131 -1.63823,-3.27645 -0.38613,-0.38613 -1.25209,0.38613 -1.63822,0 -0.54608,-0.54607 -1.09215,-4.3686 -1.63823,-4.91467 -0.38613,-0.38614 -1.1498,0.24421 -1.63822,0 -2.6003,-1.30015 -3.8336,-5.47182 -4.91468,-6.55291 -0.38613,-0.38613 -1.1498,0.24422 -1.63822,0 -1.96588,-0.98293 -2.94881,-3.93174 -4.91468,-4.91467 -2.2597,-1.12985 -1.46535,1.98398 -3.27645,-1.63823 -0.24421,-0.48842 0.38613,-1.25209 0,-1.63822 -0.38613,-0.38614 -1.25209,0.38613 -1.63823,0 -0.7222,-0.72221 -0.27693,-10.63676 0,-11.46758 0.56564,-1.6969 2.46384,-3.28944 3.27645,-4.91467 1.07098,-2.14195 -1.52206,-3.33453 1.63823,-4.91468 4.19369,-2.09685 10.71294,7.30754 14.74403,3.27645 1.30797,-1.30797 0,-10.95828 0,-13.1058 0,-3.05732 0.34972,-2.33767 1.63822,-4.91468 0.68199,-1.36396 -1.03914,-5.51375 0,-6.5529 0.54608,-0.54607 2.1843,-1.09215 1.63823,-1.63822 -3.38955,-3.38955 0.1325,5.17967 -3.27645,-1.63823 -0.24422,-0.48842 0.38613,-1.25209 0,-1.63822 -0.38614,-0.38614 -1.2521,0.38613 -1.63823,0 -1.57268,-1.57269 1.03415,-7.76107 0,-9.82936 -1.18965,-2.3793 -5.1467,-1.87024 -6.5529,-3.27645 -0.93728,-0.93728 0,-6.49569 0,-8.19112 0,-5.72805 -1.71854,-40.795 0,-44.23208 0.24421,-0.48843 1.25209,0.38613 1.63823,0 3.38954,-3.38955 -5.17968,0.1325 1.63822,-3.27646 2.7649,-1.38244 13.83215,3.63963 16.38225,4.91468 1.03512,0.51756 25.63055,0.29053 26.21161,0 1.8807,-0.94035 -1.41431,-6.10507 -1.63823,-6.5529 -1.51224,-3.02449 0,-17.01578 0,-21.29693 0,-2.80236 0.37336,-13.479164 1.63823,-14.744026 0.65573,-0.655737 2.08184,-0.887227 3.27645,-3.276451 0.48842,-0.976848 -0.77227,-2.504183 0,-3.27645 0.38613,-0.386134 1.25209,0.386133 1.63822,0 0.16777,-0.167769 1.43477,-6.247719 1.63823,-6.552901 3.81433,-5.721495 4.1024,-7.219128 9.82935,-16.382253 z"
     id="Pekalongan_Utara" />
  <path
     style="fill:#2bd4d4;fill-opacity:1;stroke:url(#linearGradient13);stroke-width:5;stroke-dasharray:none"
     d="m 146.62116,660.20478 c 1.09215,0 3.27645,1.09215 3.27645,0 0,-1.09215 -4.33599,-0.26489 -3.27645,0 3.20533,0.80133 5.9221,0.81911 9.01024,0.81911 0.64137,0 3.68684,-0.40872 4.09556,0 0.32787,0.32787 0.44362,1.04092 1.63823,1.63823 0.68026,0.34013 2.4999,0 3.27645,0 1.67135,0 -0.0331,0.81911 1.63822,0.81911 0.1203,0 -0.17581,-6.46499 0,-6.5529 1.29973,-0.64986 8.40907,0.46404 9.82936,0.81911 0.3746,0.0937 0.45279,0.69701 0.81911,0.81911 1.62241,0.54081 4.2178,-0.75799 5.73379,0 3.36382,1.68191 5.35594,1.23924 9.01024,2.45734 1.83588,0.61196 4.83303,-0.85993 6.5529,0 3.24798,1.624 8.45619,0.81911 12.28669,0.81911 2.21689,0 7.13815,0.93605 9.01023,0 1.96568,-0.98284 3.78372,-2.30141 5.73379,-3.27645 0.69074,-0.34536 0.94749,-1.29285 1.63823,-1.63822 0.24421,-0.12211 0.697,0.24421 0.81911,0 0.24421,-0.48843 -0.24421,-1.1498 0,-1.63823 0.12211,-0.24421 0.62605,0.19307 0.81911,0 0.19307,-0.19306 -0.1221,-0.5749 0,-0.81911 0.17269,-0.34537 0.69701,-0.45279 0.81912,-0.81911 0.25902,-0.77708 -0.5792,-1.87814 0,-2.45734 0.18328,-0.18328 9.28871,-1.72833 9.82935,-1.63823 3.05111,0.50852 4.59566,1.53189 7.37201,2.45734 2.64831,0.88277 5.84066,0.46299 8.19113,1.63823 2.60396,1.30198 7.04346,-0.92863 9.82935,0 1.10774,0.36924 2.199,1.0995 3.27645,1.63822 1.31631,0.65816 3.50119,-0.47116 4.91468,0 2.14802,0.71601 4.46725,0.94301 6.5529,1.63823 1.48186,0.49395 5.08117,2.54059 6.5529,3.27645 2.04215,1.02108 5.35869,-0.18755 7.37201,0.81911 0.69956,0.34978 6.17546,2.64606 6.5529,2.45734 1.67727,-0.83864 3.27898,-7.37708 4.09557,-9.01024 0.34536,-0.69074 1.39401,-0.90559 1.63822,-1.63823 0.17268,-0.51805 -0.24421,-1.1498 0,-1.63822 0.12211,-0.24421 0.62605,0.19307 0.81911,0 0.43171,-0.43171 0.38741,-1.20652 0.81912,-1.63823 1.69477,-1.69477 -0.0662,2.58984 1.63822,-0.81911 0.24421,-0.48842 -0.38613,-1.25209 0,-1.63822 0.19307,-0.19307 0.62605,0.19306 0.81911,0 0.97912,-0.97912 1.91168,-3.00425 2.45734,-4.09557 0.49147,-0.98293 1.96587,-1.4744 2.45734,-2.45733 0.12211,-0.24422 -0.19307,-0.62605 0,-0.81912 0.19307,-0.19306 0.62605,0.19307 0.81911,0 0.38614,-0.38613 -0.24421,-1.1498 0,-1.63822 0.84939,-1.69878 6.3414,-0.81912 8.19113,-0.81912 1.29939,0 12.06965,0.7106 12.28669,0.81912 1.86124,0.93062 3.87024,0.70645 5.73379,1.63822 1.52901,0.76451 4.20477,-0.7645 5.73378,0 2.09173,1.04587 8.38543,2.06875 9.82936,-0.81911 0.89583,-1.79167 0,-6.16898 0,-8.19113 0,-0.27303 -0.19307,0.62605 0,0.81912 0.19306,0.19306 0.5749,-0.12211 0.81911,0 2.18102,1.09051 2.85956,3.068 4.91467,4.09556 4.64491,2.32245 2.77545,2.27443 4.91468,6.5529 0.34537,0.69074 1.29286,0.94749 1.63823,1.63823 0.24821,0.49643 0.47586,2.11409 0.81911,2.45733 0.19306,0.19307 0.5749,-0.1221 0.81911,0 0.54608,0.27304 0.27304,1.36519 0.81911,1.63823 0.48843,0.24421 1.12018,-0.17269 1.63823,0 0.36632,0.12211 0.47374,0.64643 0.81911,0.81911 0.48843,0.24421 1.1498,-0.24421 1.63823,0 1.18262,0.59132 2.09382,1.04691 3.27645,1.63823 1.62751,0.81376 0.89555,0.89555 1.63822,1.63822 0.38614,0.38614 1.1498,-0.24421 1.63823,0 0.54607,0.27304 1.36519,1.36519 1.63822,0.81911 0.24421,-0.48842 -0.24421,-1.1498 0,-1.63822 0.12211,-0.24421 0.62605,0.19307 0.81912,0 0.38613,-0.38613 -0.24422,-1.1498 0,-1.63823 0.62475,-1.24951 1.84652,-2.05482 2.45733,-3.27645 0.72597,-1.45194 -0.55561,-4.62257 0.81912,-7.37201 0.1221,-0.24421 -0.19307,-0.62605 0,-0.81911 2.22975,-2.22976 4.86491,6.60266 6.5529,4.91467 0.38613,-0.38613 -0.38614,-1.25209 0,-1.63822 0.19306,-0.19307 0.62604,0.19306 0.81911,0 0.19307,-0.19307 -0.12211,-0.5749 0,-0.81911 0.34537,-0.69074 1.29286,-0.94749 1.63822,-1.63823 0.20533,-0.41065 -0.23388,-5.38244 0.81912,-3.27645 0.48842,0.97685 -0.34537,2.24035 0,3.27645 0.1221,0.36632 0.72546,0.44451 0.81911,0.81911 0.15316,0.61265 -0.23286,9.59649 0,9.82935 1.69477,1.69478 -0.0662,-2.58983 1.63823,0.81912 0.1221,0.24421 -0.19307,0.62604 0,0.81911 1.22287,1.22288 6.80709,-0.50839 7.37201,-1.63823 0.24821,-0.49643 0.47587,-2.11409 0.81911,-2.45733 1.69477,-1.69478 -0.0662,2.58983 1.63823,-0.81912 0.5714,-1.14281 1.4853,-6.06688 2.45733,-6.5529 2.5516,-1.27579 13.8265,1.12496 17.20137,0 1.74392,-0.58131 3.17075,-1.05691 4.91468,-1.63822 0.51805,-0.17269 1.1498,0.24421 1.63822,0 1.19461,-0.59731 1.31036,-1.31036 1.63823,-1.63823 0.19306,-0.19306 0.62604,0.19307 0.81911,0 0.96446,-0.96446 0.26197,-2.98128 0.81911,-4.09556 0.44026,-0.88052 1.19797,-1.57682 1.63823,-2.45734 0.64714,-1.29428 0.35025,-3.50808 0.81911,-4.91467 1.29179,-3.87536 3.28527,-7.38967 4.91468,-10.64847 0.24421,-0.48842 -0.38614,-1.25209 0,-1.63822 0.99766,-0.99767 1.83007,-0.38369 2.45733,-1.63823 0.24822,-0.49643 0.47587,-2.11409 0.81912,-2.45734 0.92833,-0.92833 2.59766,-1.09976 3.27645,-2.45733 0.1221,-0.24422 -0.19307,-0.62605 0,-0.81912 1.27766,-1.27766 4.15736,-0.44045 4.91467,-0.81911 0.95416,-0.47708 1.50318,-1.16114 2.45734,-1.63823 2.11273,-1.05636 7.3648,0.8119 8.19113,1.63823 0.15093,0.15093 0.66818,2.30641 0.81911,2.45734 1.69477,1.69477 -0.0663,-2.58984 1.63822,0.81911 0.24728,0.49456 -0.37864,2.07869 0,2.45734 1.66777,1.66776 20.95552,2.57114 23.75427,1.63822 2.82366,-0.94122 0.60677,-0.81911 2.45734,-0.81911 0.49986,0 2.95729,0.31916 3.27645,0 0.28038,-0.28038 0.33345,-8.03892 0.81911,-9.01024 1.47081,-2.94161 3.12587,-6.25174 4.91468,-9.82935 0.36632,-0.73264 -0.25903,-1.68026 0,-2.45734 0.1221,-0.36632 0.697,-0.45279 0.81911,-0.81911 0.53063,-1.59188 -0.74635,-4.24109 0,-5.73379 0.12211,-0.24421 0.62605,0.19307 0.81911,0 0.50324,-0.50324 0.54115,-1.9088 1.63823,-2.45734 0.7043,-0.35215 18.53624,-1.19326 19.6587,-0.81911 0.5792,0.19307 1.20652,0.3874 1.63823,0.81911 0.81642,0.81643 -0.81643,10.65116 0,11.46758 0.95563,0.95563 4.77815,-0.95563 5.73378,0 0.21683,0.21682 0,2.12006 0,2.45734 0,2.34377 0.9765,7.87636 0,9.82935 -0.84177,1.68355 -1.6078,3.2156 -2.45733,4.91468 -1.25488,2.50976 1.46366,10.29933 2.45733,12.28668 0.43686,0.87373 -0.43686,2.40274 0,3.27646 0.17269,0.34536 0.69701,0.45279 0.81912,0.81911 0.77638,2.32916 -1.08827,6.01459 0,8.19112 0.31846,0.63694 10.39121,1.3573 11.46757,0.81912 0.88052,-0.44026 3.44179,-1.63823 2.45734,-1.63823 -0.27304,0 0,0.54608 0,0.81911 0,0.81912 0,1.63823 0,2.45734 0,1.54469 -0.77856,4.93495 0.81911,5.73379 0.96049,0.48024 0.9722,-0.4861 1.63823,-0.81911 0.86129,-0.43065 3.1117,0 4.09556,0 0.27304,0 0.62605,-0.19307 0.81912,0 0.24434,0.24434 3.77974,8.88189 4.09556,9.82935 0.36929,1.10788 -0.76596,4.14872 0,4.91468 0.61973,0.61973 7.13153,0.81911 9.01024,0.81911 3.21364,0 10.4116,0.29112 13.1058,1.63822 3.40895,1.70448 -0.87566,-0.0565 0.81911,1.63823 0.27172,0.27172 2.7928,1.3964 3.27645,1.63822 3.40895,1.70448 -0.87566,-0.0565 0.81912,1.63823 0.5792,0.5792 1.68025,-0.25903 2.45733,0 0.36632,0.12211 0.47375,0.64643 0.81912,0.81911 1.56715,0.78358 4.00243,1.06111 5.73378,1.63823 2.65514,0.88504 12.21535,0 15.56314,0 1.07377,0 5.89892,-0.65399 6.5529,0 0.19307,0.19306 -0.24421,0.697 0,0.81911 0.48843,0.24421 1.12018,-0.17268 1.63823,0 0.36632,0.12211 0.47374,0.64643 0.81911,0.81911 1.75103,0.87551 3.75166,0.81911 5.73379,0.81911 1.46716,0 12.97657,-0.12922 13.1058,0 0.75208,0.75208 -0.71369,8.40197 0,9.82936 0.17269,0.34536 0.69701,0.45279 0.81912,0.81911 0.44763,1.3429 -0.63034,3.65401 0,4.91467 0.1221,0.24422 0.62604,-0.19306 0.81911,0 0.38613,0.38614 -0.38613,1.2521 0,1.63823 0.19307,0.19307 0.69701,-0.24421 0.81911,0 0.36632,0.73264 -0.36632,1.7247 0,2.45734 0.49797,0.99595 1.16732,2.33463 1.63823,3.27645 0.94247,1.88495 3.14414,3.01184 4.09556,4.91467 0.25303,0.50606 0.51549,2.97284 0.81911,3.27645 0.19307,0.19307 0.62605,-0.19306 0.81911,0 0.38614,0.38614 -0.38613,1.2521 0,1.63823 0.19307,0.19307 0.62605,-0.19307 0.81912,0 0.40872,0.40872 0,3.45419 0,4.09556 0,4.29843 0.96575,21.67613 0,24.57338 -0.26849,0.80547 -2.13637,2.28017 -1.63823,3.27645 0.34537,0.69074 1.29286,0.94749 1.63823,1.63823 0.24421,0.48842 -0.17269,1.12017 0,1.63822 1.97772,5.93318 -0.23616,-1.29142 1.63822,2.45734 0.24421,0.48843 -0.24421,1.1498 0,1.63823 0.34537,0.69073 1.29286,0.94748 1.63823,1.63822 0.44798,0.89597 0.79288,2.43111 1.63822,3.27645 0.19307,0.19307 0.69701,-0.24421 0.81912,0 0.24421,0.48843 -0.24422,1.1498 0,1.63823 0.1221,0.24421 0.62604,-0.19307 0.81911,0 0.74284,0.74284 0.45805,5.46971 0.81911,6.5529 0.12211,0.36632 0.64643,0.47374 0.81911,0.81911 0.93188,1.86375 -0.48212,10.60173 -0.81911,12.28669 -0.20468,1.02342 0.32746,2.29408 0,3.27645 -0.1221,0.36632 -0.54607,0.54608 -0.81911,0.81911 -0.27304,0.81912 -0.6097,1.6197 -0.81911,2.45734 -0.33105,1.32418 0.9619,6.41012 0,7.37201 -1.09215,1.09216 -0.81912,-1.36518 -0.81912,0.81912 0,1.18407 0.37259,3.79693 0,4.91467 -0.63088,1.89267 -2.43159,-0.0257 -3.27645,0.81912 -0.34324,0.34324 -0.57089,1.9609 -0.81911,2.45733 -1.70448,3.40895 0.0566,-0.87566 -1.63823,0.81912 -0.5792,0.5792 0.25903,1.68026 0,2.45733 -0.1221,0.36632 -0.64642,0.47375 -0.81911,0.81912 -1.30347,2.60694 1.17631,3.63364 2.45734,4.91467 1.69477,1.69478 -2.58984,-0.0662 0.81911,1.63823 1.15719,0.57859 1.66468,0.0264 2.45734,0.81911 1.36982,1.36982 -1.63822,6.32074 -1.63822,7.37201 0,1.47883 0.2389,4.67577 -0.81912,5.73379 -0.19306,0.19307 -0.62604,-0.19306 -0.81911,0 -0.15093,0.15093 -0.66818,2.30641 -0.81911,2.45734 -0.19307,0.19307 -0.62605,-0.19307 -0.81912,0 -0.76449,0.76449 -1.28086,3.8426 -1.63822,4.91468 -1.97773,5.93317 0.23615,-1.29142 -1.63823,2.45733 -0.32764,0.65529 0.32765,1.80205 0,2.45734 -0.1221,0.24421 -0.62604,-0.19306 -0.81911,0 -0.23094,0.23095 0.0146,3.20321 0,3.27645 -0.16933,0.84666 -0.6097,1.6197 -0.81911,2.45734 -0.10922,0.43686 0.30034,2.157 0,2.45734 -0.19307,0.19307 -0.62605,-0.19307 -0.81911,0 -0.38614,0.38613 0.38613,1.25209 0,1.63822 -0.33037,0.33037 -4.02384,0.3737 -4.91468,0.81912 -2.56096,1.28048 -4.62382,3.54058 -7.37201,4.91467 -0.24422,0.12211 -0.54608,0 -0.81912,0 -0.54607,0.27304 -1.13023,0.48045 -1.63822,0.81911 -1.87438,1.24959 0.51218,0.64839 -2.45734,1.63823 -1.36003,0.45334 -2.7669,0.28765 -4.09556,0.81911 -1.74431,0.69773 -3.2859,2.46206 -4.91468,3.27645 -0.48842,0.24422 -1.25209,-0.38613 -1.63822,0 -0.43171,0.43171 -0.38741,1.20652 -0.81912,1.63823 -0.61018,0.61018 -2.81362,1.1754 -3.27645,1.63822 -0.0995,0.0995 -2.98413,4.62236 -3.27645,4.91468 -0.46868,0.46868 -2.07009,0.4765 -2.45733,1.63822 -0.17269,0.51806 0.3029,1.18387 0,1.63823 -0.70194,1.0529 -3.46039,1.00305 -4.09557,1.63823 -0.43171,0.43171 -0.3874,1.20651 -0.81911,1.63822 -3.19678,3.19678 -0.4399,-0.1896 -2.45734,0.81911 -1.42186,0.71093 -1.78428,1.46256 -3.27645,2.45734 -1.15678,0.77119 -5.05221,1.70699 -6.5529,2.45734 -0.87521,0.43761 -0.76301,1.20062 -1.63822,1.63822 -1.19834,0.59917 -3.34249,-0.37654 -5.73379,0.81912 -0.48843,0.24421 -1.2521,-0.38614 -1.63823,0 -0.19307,0.19306 0.19307,0.62604 0,0.81911 -0.19307,0.19307 -0.62604,-0.19307 -0.81911,0 -0.19307,0.19307 0.1221,0.5749 0,0.81911 -0.27061,0.54123 -1.95778,1.38845 -2.45734,1.63823 -1.03819,0.51909 -3.72845,0 -4.91467,0 -0.21793,0 -2.38971,0.13526 -2.45734,0 -0.24421,-0.48843 0.24421,-1.1498 0,-1.63823 -0.27304,-0.54607 -1.36519,-0.27304 -1.63823,-0.81911 -0.51707,-1.03415 0.78634,-4.12834 0,-4.91468 -1.934,-1.934 0.43078,4.56878 -1.63822,-1.63822 -0.86309,-2.58927 0.54802,-4.63774 -0.81912,-7.37202 -0.36631,-0.73263 0.36632,-1.7247 0,-2.45733 -0.0507,-0.10146 -2.1153,-0.95417 -2.45733,-1.63823 -0.39651,-0.79301 0.0416,-1.55505 -0.81912,-3.27645 -0.24421,-0.48842 0.24422,-1.1498 0,-1.63822 -0.47195,-0.94391 -3.16482,-1.28449 -4.09556,-0.81912 -1.61367,0.80684 -2.46962,1.66279 -3.27645,3.27645 -0.12211,0.24422 0.19307,0.62605 0,0.81912 -0.37659,0.37659 -2.63229,1.31614 -3.27645,1.63822 -1.99473,0.99737 -11.30098,-0.36791 -13.1058,-0.81911 -3.80991,-0.95248 -13.46903,0 -18.02048,0 -4.98034,0 -12.97239,-1.29538 -17.20137,0.81911 -0.87372,0.43686 -2.40273,-0.43686 -3.27645,0 -1.29983,0.64992 -1.35122,4.23907 0,4.91468 0.48843,0.24421 1.2521,-0.38614 1.63823,0 0.40956,0.40955 0.40956,1.22867 0.81911,1.63822 0.19307,0.19307 0.62605,-0.19306 0.81911,0 0.19307,0.19307 0,0.54608 0,0.81912 0,2.14343 0.99721,7.01582 0,9.01023 -1.70447,3.40895 0.0566,-0.87566 -1.63822,0.81912 -0.94397,0.94397 -1.02917,3.69657 -1.63823,4.91467 -1.27834,2.55669 -16.97246,-1.04801 -19.6587,1.63823 -0.51957,0.51957 0.34099,2.59446 0,3.27645 -0.54607,1.09215 -1.75132,0.59292 -0.81911,2.45734 0.24421,0.48842 1.09215,0 1.63822,0 4.15089,0 -0.97685,-0.24422 3.27645,0.81911 2.05516,0.51379 18.09508,-0.74452 18.83959,0 0.37106,0.37106 0.81912,1.67877 0.81912,2.45734 0,0.72574 0.25416,2.76813 0,3.27645 -0.12211,0.24421 -0.62605,-0.19307 -0.81912,0 -0.53699,0.53699 -0.40873,2.86607 -0.81911,3.27645 -0.73017,0.73017 -2.40653,0.38415 -3.27645,0.81911 -0.69074,0.34537 -0.94749,1.29286 -1.63822,1.63823 -0.6494,0.32469 -21.00648,0.55478 -22.11605,0 -3.78259,-1.8913 -4.85744,-5.98775 -9.01023,-7.37202 -2.10272,-0.7009 -4.43144,-0.11195 -6.5529,-0.81911 -1.16763,-0.38921 -1.1795,-1.17949 -1.63823,-1.63823 -0.37865,-0.37864 -1.96278,0.24728 -2.45734,0 -2.52594,-1.26297 -4.86803,-2.84357 -7.37201,-4.09556 -0.65529,-0.32764 -1.80205,0.32765 -2.45734,0 -1.90101,-0.95051 -3.86524,-2.34218 -5.73379,-3.27645 -0.48842,-0.24421 -1.25209,0.38613 -1.63822,0 -1.12921,-1.1292 1.25541,-3.87741 -0.81912,-4.91468 -2.1843,-1.09215 -6.00682,1.09215 -8.19112,0 -0.95416,-0.47708 -1.50318,-1.16114 -2.45734,-1.63822 -0.48842,-0.24421 -1.25209,0.38613 -1.63823,0 -0.49465,-0.49466 0,-4.13789 0,-4.91468 0,-0.54607 0.24422,-1.1498 0,-1.63822 -0.22658,-0.45316 -3.80637,0.77066 -2.45733,-3.27645 0.79789,-2.39367 6.05763,-0.98104 7.37201,-1.63823 3.40895,-1.70447 -0.87566,0.0566 0.81911,-1.63822 0.61406,-0.61406 2.88612,-0.46723 3.27645,-1.63823 0.17269,-0.51805 -0.24421,-1.1498 0,-1.63822 0.14116,-0.28232 2.99257,-1.35435 3.27645,-1.63823 0.83503,-0.83503 -0.90195,-1.59681 0.81912,-2.45734 0.75731,-0.37865 3.63701,0.45855 4.91467,-0.81911 1.25589,-1.25588 -2.78333,-5.56666 -3.27645,-6.5529 -1.25738,-2.51477 2.04785,-4.91455 0.81911,-7.37201 -0.71672,-1.43345 -11.5549,-4.82735 -12.28668,-4.09557 -0.3249,0.32489 -0.93436,6.49528 -4.09557,4.91468 -2.50398,-1.25199 -4.84607,-2.83259 -7.37201,-4.09556 -0.99161,-0.49581 -7.19952,-0.49581 -8.19113,0 -0.89551,0.44775 -2.03438,2.43054 -2.45734,3.27645 -0.36631,0.73263 0.25903,1.68026 0,2.45733 -0.53315,1.59946 -1.6937,3.38742 -2.45733,4.91468 -0.50688,1.01376 -0.25473,11.01306 0,12.28669 0.46958,2.34792 0.8219,2.46292 1.63822,4.09556 0.36632,0.73264 -0.25902,1.68026 0,2.45734 0.51774,1.55321 1.7139,3.42781 2.45734,4.91468 0.34099,0.68198 -0.51957,2.75687 0,3.27645 0.19307,0.19306 0.62605,-0.19307 0.81911,0 0.54248,0.54248 -0.58732,11.59133 -0.81911,12.28669 -0.45234,1.35702 -1.63823,2.34193 -1.63823,4.09556 0,4.3574 -1.56933,6.41511 -3.27645,9.82935 -0.24728,0.49456 0.37865,2.07869 0,2.45734 -0.38613,0.38613 -1.1498,0.24421 -1.63822,0 -0.91187,-0.45594 -3.65155,-4.02665 -4.09556,-4.91468 -0.32765,-0.65529 0.32764,-1.80204 0,-2.45734 -0.12211,-0.24421 -0.62605,0.19307 -0.81912,0 -0.60713,-0.60712 0.19757,-2.25976 -0.81911,-3.27645 -0.19307,-0.19306 -0.5749,0.12211 -0.81911,0 -0.95416,-0.47708 -1.50318,-1.16114 -2.45734,-1.63822 -0.64685,-0.32343 -1.76654,0.23026 -2.45734,0 -1.9806,-0.6602 -3.22247,-2.43035 -4.91467,-3.27645 -0.24422,-0.12211 -0.69701,0.24421 -0.81912,0 -0.24421,-0.48843 0.17269,-1.12017 0,-1.63823 -0.1221,-0.36631 -0.64643,-0.47374 -0.81911,-0.81911 -0.24421,-0.48842 0.17268,-1.12017 0,-1.63822 -0.67957,-2.0387 -0.75717,-3.97167 -1.63822,-5.73379 -1.30679,-2.61357 1.31094,-12.94124 0,-15.56314 -0.12211,-0.24421 -0.62605,0.19306 -0.81912,0 -0.74579,-0.74579 0.32902,-3.92763 0,-4.91468 -0.59067,-1.77202 -0.88216,-3.40255 -1.63822,-4.91467 -0.43686,-0.87372 0.43686,-2.40273 0,-3.27645 -0.12211,-0.24422 -0.62605,0.19306 -0.81912,0 -0.45027,-0.45028 -0.47503,-3.40742 -0.81911,-4.09557 -0.67536,-1.35073 -1.83055,-2.84199 -2.45734,-4.09556 -0.91669,-1.83339 -2.24355,-2.02976 -3.27645,-4.09556 -0.38329,-0.7666 -1.34407,-5.50298 -0.81911,-6.55291 0.48384,-0.96767 1.85493,-1.55372 2.45734,-2.45733 0.49883,-0.74825 0.69918,-1.98782 1.63822,-2.45734 1.12985,-0.56493 0.73268,0.99199 1.63823,-0.81911 0.12211,-0.24422 -0.19307,-0.62605 0,-0.81912 0.19307,-0.19306 0.54607,0 0.81911,0 0.54608,-0.54607 1.20985,-0.99566 1.63823,-1.63822 0.1137,-0.17056 1.48727,-6.10005 1.63822,-6.5529 0.40015,-1.20046 1.98043,-1.84571 2.45734,-3.27645 1.18587,-3.55762 -1.39776,-2.79552 -2.45734,-4.91468 -0.22763,-0.45527 -0.1638,-2.78504 0,-3.27645 0.16663,-0.49987 1.4716,-1.95746 1.63823,-2.45734 0.24573,-0.7372 -0.24574,-1.72013 0,-2.45734 0.66598,-1.99793 0.97224,-3.73585 1.63822,-5.73378 0.17269,-0.51806 -0.24421,-1.1498 0,-1.63823 1.87438,-3.74876 -0.3395,3.47584 1.63823,-2.45734 0.36897,-1.10692 1.29527,-15.90609 0.81911,-16.38225 -0.83799,-0.83799 -4.74067,0.17401 -5.73379,-0.81911 -0.68259,-0.6826 0.6826,-3.41297 0,-4.09557 -0.38613,-0.38613 -1.1498,0.24422 -1.63822,0 -0.64416,-0.32208 -2.89986,-1.26163 -3.27645,-1.63822 -1.69478,-1.69477 2.58983,0.0663 -0.81912,-1.63823 -0.48842,-0.24421 -1.1498,0.24422 -1.63822,0 -0.84591,-0.42295 -2.8287,-1.56182 -3.27645,-2.45733 -0.12211,-0.24422 0.19307,-0.62605 0,-0.81912 -0.95375,-0.95374 -4.52501,-1.23529 -5.73379,-1.63822 -1.20046,-0.40015 -1.84571,-1.98043 -3.27645,-2.45734 -0.51805,-0.17268 -1.1498,0.24421 -1.63823,0 -1.75228,-0.87614 -3.16239,-2.40031 -4.91467,-3.27645 -3.19471,-1.59735 -3.85024,1.92512 -4.91468,2.45734 -0.77831,0.38916 -2.91167,-0.45434 -3.27645,-0.81911 -0.19306,-0.19307 0.19307,-0.62605 0,-0.81912 -0.16603,-0.16603 -3.92952,-0.16603 -4.09556,0 -0.40956,0.40956 0.40956,2.04778 0,2.45734 -0.19307,0.19307 -0.69701,-0.24421 -0.81911,0 0,4.64164 0.54607,0.27304 -0.81912,1.63823 -0.38613,0.38613 0.38614,1.25209 0,1.63822 -0.19306,0.19307 -0.697,-0.24421 -0.81911,0 -0.24421,0.48843 0.24421,1.1498 0,1.63823 -0.1221,0.24421 -0.5749,-0.12211 -0.81911,0 -0.69074,0.34536 -0.94749,1.29285 -1.63823,1.63822 -0.48842,0.24421 -1.1498,-0.24421 -1.63822,0 -1.65838,0.82919 -2.3988,1.63823 -4.09556,1.63823 -1.18623,0 -3.87649,0.51909 -4.91468,0 -1.88495,-0.94248 -3.01185,-3.14415 -4.91468,-4.09557 -1.32002,-0.66001 -2.74542,-0.96315 -4.09556,-1.63822 -1.87461,-0.93731 -11.28686,0.99983 -12.28669,0 -0.43171,-0.43171 -0.3874,-1.20652 -0.81911,-1.63823 -0.66207,-0.66206 -4.23952,-1.92613 -4.91468,-3.27645 -0.74514,-1.49028 -0.10325,-3.73763 -2.45734,-4.91467 -1.94148,-0.97074 -5.30101,0.69033 -7.37201,0 -0.97028,-0.32343 -1.53627,-1.99681 -2.45734,-2.45734 -1.74744,-0.87372 -4.80546,0.87372 -6.5529,0 -1.30091,-0.65045 -4.86361,-1.66376 -6.5529,-0.81911 -3.95556,1.97778 -10.34224,8.3978 -12.28669,12.28669 -1.25824,2.51649 -0.46201,-1.35478 -2.45734,1.63822 -0.86797,1.30196 -0.0251,5.74633 -1.63822,6.5529 -0.87372,0.43686 -2.40273,-0.43686 -3.27645,0 -2.99782,1.49891 -6.69724,0.0722 -8.19113,0.81911 -2.97765,1.48883 -11.35737,1.69333 -14.74403,0 -0.69073,-0.34536 -0.94748,-1.29285 -1.63822,-1.63822 -0.48843,-0.24421 -1.1498,0.24421 -1.63823,0 -3.40895,-1.70448 0.87566,0.0566 -0.81911,-1.63823 -0.73017,-0.73017 -2.40653,-0.38415 -3.27645,-0.81911 -1.22163,-0.61081 -2.02693,-1.83258 -3.27645,-2.45734 -0.48842,-0.24421 -1.1498,0.24422 -1.63823,0 -0.95416,-0.47708 -1.50317,-1.16114 -2.45733,-1.63822 -2.09002,-1.04501 -7.08925,0.17878 -9.01024,0.81911 -2.8306,0.94354 -7.19056,-1.3194 -9.82935,0 -0.34537,0.17269 -0.47375,0.64643 -0.81912,0.81911 -3.05802,1.52901 -8.40955,-1.52901 -11.46757,0 -2.66459,1.3323 -5.52654,1.94416 -8.19113,3.27645 -0.48842,0.24422 -1.1498,-0.24421 -1.63822,0 -2.24049,1.12025 -4.31242,2.15621 -6.55291,3.27645 -0.48842,0.24422 -1.1498,-0.24421 -1.63822,0 -0.88362,0.44182 -0.648,2.45734 -1.63823,2.45734 -1.70447,0 -0.32958,-1.1487 -0.81911,-1.63822 -0.61018,-0.61018 -2.81362,-1.1754 -3.27645,-1.63823 -1.69477,-1.69477 2.58984,0.0662 -0.81911,-1.63822 -4.3686,-2.1843 2.45734,2.45733 -0.81911,-0.81912 -0.78635,-0.78634 -3.88054,0.51708 -4.91468,0 -1.71237,-0.85618 -0.15885,-1.95592 -0.81911,-3.27645 -0.38936,-0.7787 -5.57146,-1.1475 -6.5529,-1.63822 -1.38035,-0.69018 -1.5853,-1.89362 -3.27645,-2.45734 -0.51806,-0.17268 -1.14981,0.24421 -1.63823,0 -0.98293,-0.49147 -1.4744,-1.96587 -2.45734,-2.45734 -0.85936,-0.42968 -3.44178,0.65379 -4.09556,0 -0.78249,-0.78249 0.77191,-9.87655 0,-10.64846 -0.33383,-0.33383 -6.54217,-0.40419 -7.37201,-0.81911 -1.81111,-0.90556 -0.25419,-0.50838 -0.81912,-1.63823 -1.70447,-3.40895 0.0566,0.87566 -1.63822,-0.81911 -1.00192,-1.00192 0.64633,-5.26023 0,-6.5529 -0.27304,-0.54608 -1.20652,-0.38741 -1.63823,-0.81912 -0.58162,-0.58162 -1.4927,-2.31181 -1.63822,-2.45733 -0.6826,-0.6826 -3.41297,0.68259 -4.09557,0 -1.69477,-1.69478 2.58984,0.0662 -0.81911,-1.63823 -0.24421,-0.1221 -0.697,0.24421 -0.81911,0 -0.24421,-0.48842 0.24421,-1.1498 0,-1.63822 -0.23717,-0.47434 -1.85278,0.39001 -2.45734,-0.81912 -0.626,-1.25201 -1.75634,-1.05534 -2.45734,-2.45733 -0.1221,-0.24422 0.19307,-0.62605 0,-0.81912 -0.19306,-0.19306 -0.62604,0.19307 -0.81911,0 -0.49465,-0.49465 0,-4.13789 0,-4.91467 0,-0.77679 -0.49465,-4.42002 0,-4.91468 0.61053,-0.61053 1.73893,-0.34017 2.45734,-0.81911 0.90361,-0.60241 1.48967,-1.9735 2.45734,-2.45734 0.48842,-0.24421 1.1498,0.24421 1.63822,0 1.14742,-0.57371 2.36175,-2.36175 3.27645,-3.27645 0.54608,-0.54607 0.94749,-1.29286 1.63823,-1.63822 0.24421,-0.12211 0.697,0.24421 0.81911,0 0.24421,-0.48843 -0.24421,-1.14981 0,-1.63823 0.12211,-0.24421 0.62605,0.19307 0.81911,0 0.6516,-0.6516 1.04969,-3.50703 1.63823,-4.09556 0.50324,-0.50324 1.90879,-0.54115 2.45734,-1.63823 0.34561,-0.69123 2.67697,-4.61494 3.27645,-4.91467 0.70052,-0.35027 1.75681,-0.46885 2.45733,-0.81912 1.31058,-0.65529 1.96587,-2.62116 3.27645,-3.27645 0.24422,-0.1221 0.62605,0.19307 0.81912,0 0.43171,-0.43171 0.3874,-1.20651 0.81911,-1.63822 0.49697,-0.49697 4.32068,-1.86334 4.91468,-2.45734 0.50176,-0.50177 0.69732,-2.1437 1.63822,-2.45734 1.93276,-0.64425 1.74779,-0.10956 3.27645,-1.63822 1.27757,-1.27757 1.18883,-0.18486 2.45734,-0.81912 1.54041,-0.7702 3.35693,-2.6183 4.09556,-4.09556 0.12211,-0.24421 -0.19306,-0.62605 0,-0.81911 0.19307,-0.19307 0.69701,0.24421 0.81912,0 0.24421,-0.48843 -0.24422,-1.1498 0,-1.63823 0.27303,-0.54607 1.63822,0.81912 0.81911,-0.81911 -0.0301,-0.0602 -5.07955,-3.76844 -5.73379,-4.09556 -0.65529,-0.32765 -1.80205,0.32764 -2.45734,0 -2.59601,-1.29801 -4.34921,-3.84492 -6.5529,-5.73379 z"
     id="Pekalongan_Selatan" />
  <path
     style="fill:url(#linearGradient8);stroke:url(#linearGradient11);stroke-width:5;stroke-dasharray:none;stroke-dashoffset:0"
     d="m 249.63524,314.50565 c -0.77227,0.77227 -3.08907,1.54453 -2.3168,2.3168 0.77227,0.77227 3.37634,-2.58168 2.3168,-2.3168 -5.62597,-5.00915 -3.23163,2.81481 -5.2128,3.4752 -0.67504,0.22502 -2.32719,0.19999 -2.896,0.5792 -0.35921,0.23947 -0.27394,0.85314 -0.5792,1.1584 -0.43171,0.43171 -1.22961,0.24054 -1.7376,0.5792 -1.39831,0.93221 0.19307,0.19307 -0.5792,1.7376 -0.073,0.14598 -0.91825,0.45912 -1.1584,0.5792 -0.66401,0.33201 -0.80567,1.20851 -1.1584,1.7376 -0.59405,0.89108 -1.72275,1.42573 -2.3168,2.3168 -0.42788,0.64182 -0.24959,1.65758 -0.5792,2.3168 -0.42236,0.84472 -0.92656,0.92657 -1.1584,1.1584 -0.27304,0.27304 0.27304,0.88537 0,1.1584 -0.13652,0.13652 -0.44268,-0.13651 -0.5792,0 -0.77845,0.77845 -0.50248,2.85764 -1.7376,3.4752 -0.34183,0.17092 -1.3483,0 -1.7376,0 -5.2936,0 -3.66549,-0.89912 -7.5296,-3.4752 -0.5843,-0.38953 -2.54135,-0.80374 -2.896,-1.1584 -0.3138,-0.3138 -2.20644,-2.896 -2.3168,-2.896 -1.61097,0 -2.15724,3.89483 -2.89601,4.6336 -0.13651,0.13652 -0.40651,-0.0863 -0.5792,0 -1.23871,0.61936 0.0803,0.53905 -1.1584,1.1584 -1.08667,0.54334 -8.34221,0 -9.8464,0 -0.38613,0 -0.81303,0.17269 -1.1584,0 -1.20616,-0.60308 -3.69662,-1.08459 -5.2128,-0.5792 -0.92162,0.30721 -3.11943,1.82871 -3.4752,2.896 -0.1221,0.36632 0.12211,0.79209 0,1.1584 -0.61272,1.83818 -5.31543,3.50942 -6.9504,4.05441 -0.66039,0.22013 -1.06227,0.98956 -1.7376,1.1584 -0.95128,0.23782 -2.5141,-0.32037 -3.4752,0 -0.25903,0.0863 -0.32017,0.49285 -0.5792,0.5792 -1.70809,0.56936 -10.87842,-0.70558 -11.584,0 -0.93201,0.932 -1.1584,5.04712 -1.1584,6.3712 0,2.58051 -0.62908,6.1717 0,8.688 0.97373,3.89492 2.71026,6.97238 4.0544,11.0048 0.17376,0.52128 -0.17376,1.21632 0,1.7376 0.0863,0.25903 0.49286,0.32017 0.5792,0.5792 0.45878,1.37634 -0.28584,3.20441 0,4.6336 0.11973,0.59868 0.45946,1.13893 0.5792,1.7376 0.36823,1.84118 -0.45476,3.97296 0,5.792 0.77261,3.09044 -0.0356,6.19314 0.5792,9.2672 0.42685,2.13428 1.1584,4.32928 1.1584,6.3712 0,2.59707 4.69763,1.73761 6.3712,1.73761 5.2128,0 10.4256,0 15.6384,0 1.43665,0 5.95011,-0.50015 6.9504,0 0.48843,0.24421 0.66998,0.91418 1.1584,1.1584 0.35103,0.17551 1.49489,0.33649 1.7376,0.5792 0.34978,0.34977 0,2.92593 0,3.4752 0,1.68137 -0.10948,3.94492 1.1584,5.2128 0.13652,0.13652 0.44268,-0.13652 0.5792,0 0.41628,0.41628 0,2.76745 0,3.4752 0,1.20747 0.50221,7.10438 0,8.1088 -0.3994,0.7988 -1.23485,1.56267 -1.7376,2.3168 -0.43401,0.65102 -0.40833,1.94177 -1.1584,2.3168 -0.17268,0.0863 -0.44268,-0.13652 -0.5792,0 -0.13652,0.13652 0.13652,0.44268 0,0.5792 -0.27303,0.27304 -0.77226,0 -1.1584,0 -3.28213,0 -6.56426,0 -9.8464,0 -4.3856,0 -9.75259,-0.80354 -13.9008,0.5792 -0.82182,0.27394 -2.12769,-0.38415 -2.896,0 -1.23374,0.61687 0.0753,0.54153 -1.1584,1.1584 -0.89516,0.44758 -2.00085,0.71082 -2.896,1.1584 -0.48843,0.24421 -0.66998,0.91419 -1.1584,1.1584 -0.46336,0.23168 -1.27424,-0.23168 -1.7376,0 -0.77576,0.38788 -0.80256,1.38176 -1.1584,1.7376 -0.30527,0.30527 -0.85314,0.27394 -1.1584,0.5792 -0.51631,0.51631 -0.27164,1.70168 -0.5792,2.3168 -1.27962,2.55924 -0.63075,6.2681 0.5792,8.688 0.17268,0.34537 -0.17269,0.81303 0,1.1584 0.1221,0.24421 0.49286,0.32018 0.5792,0.5792 0.77214,2.31642 -1.7376,-0.41116 -1.7376,3.4752 0,1.39112 0.52377,6.48207 0,7.5296 -0.64032,1.28065 -0.35948,0.17974 -1.1584,0.5792 -1.1051,0.55255 -1.81939,1.7785 -2.896,2.3168 -1.05099,0.5255 -6.40016,-0.55024 -6.95041,0 -0.83041,0.83042 0.38614,2.31681 0.57921,3.47521 0.5792,3.4752 -1.15841,-2.3168 0,3.4752 0.0535,0.26773 0.38613,0.38613 0.5792,0.5792 0.19306,0.77226 0.48046,1.52691 0.5792,2.3168 0.34691,2.7753 0,5.87569 0,8.688 0,0.23849 0.15331,1.58428 0,1.7376 -0.13652,0.13652 -0.44269,-0.13652 -0.5792,0 -1.19839,1.19838 1.83129,-0.0469 -0.5792,1.1584 -0.34537,0.17268 -0.88537,-0.27304 -1.15841,0 -0.13651,0.13652 0.17269,0.49286 0,0.5792 -1.73224,0.86612 -7.36709,-0.7181 -8.688,-1.1584 -1.21422,-0.40474 -2.82394,-0.16905 -4.0544,-0.5792 -0.57679,-0.19226 -1.16081,-0.96614 -1.7376,-1.1584 -0.54947,-0.18316 -1.32804,0.40955 -1.7376,0 -0.13652,-0.13652 0,-0.77227 0,-0.5792 0,0.23012 -0.0311,17.34492 0,17.376 0.40152,0.40152 2.34589,-0.18337 2.896,0 0.51806,0.17268 0.62293,1.05131 1.1584,1.1584 0.82933,0.16587 5.03128,0.32563 5.792,0.5792 4.19539,1.39846 -0.91317,-0.16698 1.7376,1.1584 1.39485,0.69743 2.66473,0.81115 4.0544,1.7376 0.45437,0.30291 0.66998,0.91419 1.1584,1.1584 0.69063,0.34531 2.37408,0.63648 2.89601,1.1584 0.13651,0.13652 -0.13652,0.44268 0,0.5792 0.0348,0.0348 2.15184,1.10342 2.3168,1.1584 0.51127,0.17043 1.70832,0 2.3168,0 2.14888,0 3.78835,0.0783 5.792,0.5792 0.5619,0.14048 1.21955,-0.25902 1.7376,0 0.67469,0.33735 1.0629,0.82106 1.7376,1.1584 0.34537,0.17269 0.81303,-0.17268 1.1584,0 0.48842,0.24421 0.66997,0.91419 1.1584,1.1584 0.17268,0.0863 0.44268,-0.13652 0.5792,0 0.13652,0.13652 -0.0863,0.40652 0,0.5792 0.24421,0.48843 0.91419,0.66998 1.1584,1.1584 0.32238,0.64476 0.20499,7.86806 0,8.688 -0.10471,0.41882 -0.53624,0.72884 -0.5792,1.1584 -0.60396,6.03962 0.31513,3.10901 -1.1584,7.52961 -0.70479,2.11436 0,10.6311 0,13.3216 0,2.07999 -0.65527,5.56379 0,7.5296 0.54265,1.62797 0.14431,1.73563 0.5792,3.4752 0.0662,0.26489 0.49286,0.32017 0.5792,0.5792 0.18316,0.54948 -0.25903,1.21955 0,1.7376 0.1221,0.24421 0.49286,0.32017 0.5792,0.5792 0.55633,1.66901 0,4.66026 0,6.3712 0,1.30327 -0.48401,5.98239 0,6.9504 0.2648,0.5296 1.17955,0.85823 1.7376,0.5792 0.88354,-0.44177 1.45298,-1.30569 2.3168,-1.7376 0.26849,-0.13424 6.68191,-0.13424 6.9504,0 0.80395,0.40198 0.5792,1.03058 0.5792,1.7376 0,3.08599 0.62248,16.66698 0,18.53441 -0.0876,0.26273 -0.86941,1.5931 -1.1584,1.7376 -1.21219,0.60609 -8.44597,-0.24204 -9.8464,1.1584 -0.88623,0.88622 -0.86946,6.08225 -1.1584,6.3712 -1.19839,1.19838 0.0468,-1.83129 -1.1584,0.5792 -0.80114,1.60227 1.4611,3.10992 -2.3168,4.0544 -2.33336,0.58334 -14.85796,1.22548 -16.79681,0.5792 -0.66038,-0.22013 -1.07721,-0.93827 -1.7376,-1.1584 -0.25886,-0.0863 -7.5296,-0.68098 -7.5296,-0.5792 0,0.27304 0.49286,0.32017 0.5792,0.5792 0.86691,2.60072 0.87646,7.02697 1.1584,9.8464 0.21779,2.17785 0.39273,15.61862 0,16.7968 -1.39846,4.19539 0.16699,-0.91317 -1.1584,1.7376 -0.25902,0.51805 0.18316,1.18813 0,1.7376 -0.25742,0.77228 -0.78758,1.57516 -1.1584,2.3168 -0.0466,0.0933 -0.5792,6.40276 -0.5792,6.9504 0,1.0752 -0.30129,6.39459 -0.5792,6.95041 -0.1221,0.24421 -0.49285,0.32017 -0.5792,0.5792 -0.18316,0.54947 0.25903,1.21954 0,1.7376 -0.44896,0.89793 -0.88666,1.80904 -1.1584,2.896 -0.26442,1.0577 0.34424,2.44249 0,3.4752 -0.71572,2.14715 -0.5792,-0.70602 -0.5792,1.1584 0,0.49318 0.79292,4.6336 1.1584,4.6336 0.27304,0 0.32018,-0.49286 0.5792,-0.5792 1.7924,-0.59747 13.73639,0 16.79681,0 0.2864,0 4.59719,0.14564 4.6336,0 0.70122,-2.80489 0,-7.3551 0,-10.4256 0,-0.43079 0.004,1.16056 1.1584,1.7376 0.17268,0.0863 0.38613,0 0.5792,0 0.19306,0.38613 0.27393,0.85313 0.5792,1.1584 0.36271,0.36271 1.13497,-0.0234 1.7376,0.5792 0.38613,0.38613 0.91419,0.66997 1.1584,1.1584 0.0863,0.17268 -0.17269,0.49285 0,0.5792 0.34537,0.17268 0.77226,0 1.1584,0 1.95459,0 5.54312,-0.66216 7.5296,0 1.30219,0.43406 2.41268,0.22502 3.4752,0.5792 1.09738,0.36579 0.91105,0.5792 2.3168,0.5792 1.03568,0 0.91101,0.7451 1.7376,1.1584 0.43877,0.21938 1.25691,-0.12017 1.7376,0 5.85201,1.463 -0.41829,-0.20915 2.3168,1.1584 0.92672,0.46336 2.54848,-0.46336 3.4752,0 2.09652,1.04826 3.71455,0.69887 5.792,1.7376 1.14377,0.57188 13.7019,0 16.2176,0 1.6201,0 7.53583,0.57609 8.68801,0 2.41049,-1.20525 -0.61919,0.04 0.5792,-1.1584 1.19838,-1.19839 -0.0468,1.83129 1.1584,-0.5792 0.71327,-1.42654 -1.68127,0.52286 0.5792,-1.7376 0.13652,-0.13652 0.44268,0.13652 0.5792,0 0.39066,-0.39067 0.57191,-4.62631 1.7376,-5.792 0.13652,-0.13652 0.44268,0.13651 0.5792,0 0.29018,-0.29018 0.19948,-1.93709 0.5792,-2.3168 0.13652,-0.13652 0.38613,0 0.5792,0 0.19306,-0.19307 0.42774,-0.35202 0.5792,-0.5792 0.20274,-0.30412 0.58925,-1.54789 1.1584,-1.7376 0.69938,-0.23313 12.56815,-0.44422 13.9008,0 2.42323,-1.04885 0.66998,0.91418 1.1584,1.1584 0.34537,0.17268 0.79208,-0.12211 1.1584,0 0.59995,0.19998 1.16299,0.87109 1.7376,1.1584 0.55572,0.27785 1.09346,-0.0325 2.3168,0.5792 1.69036,0.84518 4.56354,-0.60256 6.3712,0 0.25596,0.0853 1.99639,0.41899 2.3168,0.5792 0.24421,0.1221 0.32018,0.49285 0.5792,0.5792 0.81289,0.27096 2.13324,-0.38139 2.896,0 2.02082,1.01041 3.9143,1.95714 5.792,2.896 1.99748,0.99873 7.07877,-0.80462 9.84641,0.5792 0.7683,0.38415 2.07417,-0.27394 2.896,0 0.9512,0.31706 4.1644,1.9576 4.6336,2.896 0.0863,0.17268 -0.13652,0.44268 0,0.5792 0.27303,0.27303 0.81303,-0.17269 1.1584,0 0.67469,0.33734 1.0629,0.82105 1.7376,1.1584 0.34537,0.17268 0.81303,-0.17269 1.1584,0 2.41049,1.20524 -0.61919,-0.04 0.5792,1.1584 0.27303,0.27303 0.81303,-0.17269 1.1584,0 0.78247,0.39123 1.56528,0.78264 2.3168,1.1584 0.72573,0.36286 0.55413,1.14586 1.7376,1.7376 1.99702,0.99851 4.17925,-3.27055 4.6336,-4.6336 0.18541,-0.55623 -0.27795,-1.76091 0,-2.3168 0.24421,-0.48843 0.91419,-0.66998 1.1584,-1.1584 0.34391,-0.68783 0.28644,-2.59693 0.5792,-3.4752 1.39846,-4.19539 -0.16699,0.91317 1.1584,-1.7376 0.57524,-1.15048 1.53629,-5.59069 2.3168,-6.37121 0.13652,-0.13651 0.44268,0.13652 0.5792,0 0.27304,-0.27303 -0.27304,-0.88536 0,-1.1584 0.13652,-0.13651 0.40652,0.0864 0.5792,0 0.92223,-0.46111 0.70558,-1.22159 1.7376,-1.7376 0.69504,-0.34752 1.04256,-1.39008 1.7376,-1.7376 5.7538,-2.87689 5.70395,-4.85601 13.3216,-2.3168 1.64085,0.54695 4.25623,-0.76788 5.792,0 1.21721,0.60861 1.75606,0.29883 2.3168,0.5792 0.24422,0.12211 0.32018,0.49286 0.5792,0.5792 1.04256,0.34752 2.43264,-0.34752 3.4752,0 0.25903,0.0864 0.33499,0.4571 0.5792,0.5792 0.76831,0.38416 2.07418,-0.27394 2.89601,0 0.40955,0.13652 0.74884,0.44269 1.1584,0.5792 1.34234,0.44745 12.71473,0.0277 13.3216,-0.5792 0.13652,-0.13651 -0.0863,-0.40651 0,-0.5792 0.1221,-0.24421 0.49286,-0.32017 0.5792,-0.5792 0.1221,-0.36631 -0.17269,-0.81303 0,-1.1584 0.0863,-0.17268 0.44268,0.13652 0.5792,0 1.06186,-1.06186 -1.06187,-5.30933 0,-6.3712 0.84918,-0.84918 4.65824,0.60385 5.2128,1.1584 0.30526,0.30527 0.27393,0.85314 0.5792,1.1584 0.1029,0.1029 1.32633,0.74713 1.7376,1.1584 0.46992,0.46992 1.14747,1.44254 1.7376,1.7376 0.61781,0.30891 0.77421,-0.57338 1.1584,0.5792 0.12211,0.36632 -0.17268,0.81304 0,1.1584 0.0121,0.0242 1.50378,0.80768 1.7376,1.1584 0.24921,0.37382 0.90756,2.06596 1.1584,2.3168 1.19839,1.19839 -0.0469,-1.83129 1.1584,0.5792 0.23168,0.46336 -0.23168,1.27424 0,1.7376 0.33735,0.6747 0.82105,1.06291 1.1584,1.7376 0.0863,0.17269 -0.13652,0.44269 0,0.5792 0.19307,0.19307 1.54453,0.38614 1.7376,0.5792 0.2896,0.2896 0.2896,0.86881 0.5792,1.15841 0.3357,0.3357 1.9811,0.82269 2.3168,1.1584 0.13652,0.13651 -0.0863,0.40651 0,0.5792 0.40881,0.81762 1.14017,0.85968 1.7376,1.1584 0.77576,0.38787 0.80256,1.38175 1.1584,1.7376 0.27304,0.27303 0.81303,-0.17269 1.1584,0 0.8005,0.40025 1.34763,1.1584 2.3168,1.1584 0.55066,0 2.12727,-0.20013 2.3168,-0.5792 0.17269,-0.34537 -0.17268,-0.81304 0,-1.1584 0.0863,-0.17269 0.40652,0.0863 0.5792,0 1.56311,-0.78156 -0.02,-0.25962 0.5792,-1.1584 0.30291,-0.45437 0.8555,-0.70404 1.1584,-1.1584 1.03175,-1.54763 -1.13624,-13.04309 0.5792,-13.90081 0.10148,-0.0507 7.78454,-0.16213 8.1088,0 0.24422,0.12211 0.38614,0.38614 0.5792,0.5792 0.19307,0.19307 0.33499,0.4571 0.5792,0.5792 0.35103,0.17552 1.49489,0.33649 1.7376,0.5792 0.36903,0.36903 1.03354,3.55495 1.15841,4.0544 0.45497,1.81989 -0.7457,6.03822 0,7.52961 0.1118,0.2236 1.04659,0.35559 1.1584,0.5792 0.17268,0.34536 -0.17269,0.81303 0,1.1584 0.17268,0.34536 0.81303,-0.17269 1.1584,0 0.83624,0.41812 1.48055,0.74027 2.3168,1.1584 0.23695,0.11847 2.73376,0.16223 2.896,0 0.13652,-0.13652 -0.13652,-0.44269 0,-0.5792 0.13652,-0.13652 0.40651,0.0863 0.5792,0 0.23243,-0.11622 1.64945,-2.05237 1.7376,-2.3168 0.1221,-0.36632 -0.21419,-0.83712 0,-1.1584 0.23947,-0.35921 0.85313,-0.27394 1.1584,-0.5792 0.67919,-0.6792 0.82836,-3.14517 1.7376,-4.05441 0.13652,-0.13651 0.44268,0.13652 0.5792,0 0.59634,-0.59634 0.21149,-2.51723 1.1584,-2.896 0.44539,-0.17815 3.95414,-1.04515 4.6336,-1.1584 1.14264,-0.19044 2.35139,0.28096 3.4752,0 1.21727,-0.30431 2.34158,-1.74999 3.4752,-2.3168 1.84651,-0.92325 10.85334,0.82276 13.3216,0 0.9655,-0.32183 1.29162,-1.87082 1.7376,-2.3168 0.13652,-0.13652 0.49286,0.17269 0.5792,0 0.64503,-1.29005 0.24673,-3.3037 0.5792,-4.6336 0.49592,-1.98366 1.08429,-3.83205 1.7376,-5.792 0.27762,-0.83285 -0.38872,-2.11855 0,-2.896 0.0863,-0.17268 0.44268,0.13652 0.5792,0 0.19271,-0.19271 -0.039,-2.19991 0,-2.3168 0.17269,-0.51805 0.91419,-0.66998 1.1584,-1.1584 0.43811,-0.87622 0.33989,-2.51794 0.5792,-3.4752 0.51047,-2.04187 2.2505,-3.2763 2.896,-5.2128 0.12211,-0.36632 -0.17268,-0.81303 0,-1.1584 0.24422,-0.48843 0.77227,-0.77227 1.1584,-1.1584 0.30527,-0.30527 0.85314,-0.27394 1.1584,-0.5792 0.13652,-0.13652 -0.13652,-0.44268 0,-0.5792 0.28901,-0.28901 2.44248,0 2.896,0 3.46673,0 8.63033,0.89764 11.58401,-0.5792 0.61781,-0.30891 1.69898,0.3089 2.3168,0 0.67469,-0.33735 1.0629,-0.82105 1.7376,-1.1584 0.35103,-0.17552 1.49489,-0.33649 1.7376,-0.5792 0.15331,-0.15332 0,-1.49911 0,-1.7376 0,-0.38614 0.17268,-0.81303 0,-1.1584 -0.0864,-0.17269 -0.44268,0.13652 -0.5792,0 -0.2896,-0.2896 -0.2896,-0.8688 -0.5792,-1.1584 -0.13652,-0.13652 -0.49286,0.17268 -0.5792,0 -0.17269,-0.34537 0.17268,-0.81303 0,-1.1584 -0.0864,-0.17269 -0.38614,0 -0.5792,0 -0.19307,-0.19307 -0.4571,-0.33499 -0.5792,-0.5792 -1.22221,-2.44441 -4.51661,-8.26287 -7.5296,-9.2672 -0.84174,-0.28058 -11.80514,0.40016 -12.16321,0.5792 -0.28316,0.14158 -1.19395,1.12285 -1.7376,0.5792 -0.34711,-0.34711 0.15937,-8.84737 0.5792,-9.26721 0.88136,-0.88135 4.01304,-0.55851 5.2128,-1.1584 0.87616,-0.43807 2.80466,-7.19432 3.4752,-7.5296 0.46336,-0.23168 1.27424,0.23168 1.7376,0 0.24422,-0.1221 0.32018,-0.49286 0.5792,-0.5792 2.3406,-0.78019 10.99966,0.87138 12.74241,0 1.11893,-0.55946 1.1584,-2.15211 1.1584,-3.4752 0,-5.27528 -0.5792,-9.79983 -0.5792,-15.0592 0,-1.38618 0.55325,-8.16069 0,-9.2672 -0.0864,-0.17269 -0.44268,0.13652 -0.5792,0 -0.25085,-0.25085 -0.90919,-1.94299 -1.1584,-2.3168 -0.92666,-1.38998 -2.74365,-2.81982 -4.0544,-3.4752 -1.28065,-0.64032 -0.17974,-0.35948 -0.5792,-1.1584 -0.38788,-0.77576 -1.38176,-0.80256 -1.7376,-1.1584 -0.30527,-0.30527 -0.27394,-0.85314 -0.5792,-1.1584 -0.21276,-0.21276 -3.62248,-1.59363 -4.05441,-1.7376 -1.34225,-0.44742 -9.86477,0.56082 -10.4256,0 -0.65612,-0.65613 0.12794,-5.34074 0.5792,-5.792 0.38222,-0.38222 1.85713,-0.81826 2.3168,-1.7376 0.62841,-1.25682 2.2442,-2.1716 2.896,-3.47521 0.35537,-0.71072 0.63439,-1.53077 1.1584,-2.3168 0.54778,-0.82165 1.29442,-0.71521 1.7376,-1.1584 0.54179,-0.54178 0.79127,-2.74093 1.1584,-3.4752 0.24422,-0.48842 0.91419,-0.66997 1.1584,-1.1584 0.17269,-0.34537 -0.27303,-0.88536 0,-1.1584 0.13652,-0.13652 0.44269,0.13652 0.5792,0 0.61368,-0.61367 0.52476,-2.84155 1.15841,-3.4752 0.13651,-0.13652 0.49285,0.17269 0.5792,0 0.17268,-0.34537 -0.17269,-0.81303 0,-1.1584 0.0863,-0.17268 0.44268,0.13652 0.5792,0 0.24365,-0.24365 -0.10608,-2.10465 0,-2.3168 0.0863,-0.17268 0.44268,0.13652 0.5792,0 0.27303,-0.27304 0,-0.77226 0,-1.1584 0,-4.47311 -0.91177,-4.71952 -2.89601,-8.688 -0.17268,-0.34537 0.17269,-0.81303 0,-1.1584 -0.16154,-0.32309 -1.58088,-2.16009 -1.7376,-2.3168 -0.13651,-0.13652 -0.49285,0.17268 -0.5792,0 -0.17268,-0.34537 0.27304,-0.88536 0,-1.1584 -1.65762,-1.65763 -0.72542,1.44516 -1.7376,-0.5792 -0.25902,-0.51805 0.18316,-1.18812 0,-1.7376 -0.17268,-0.51805 -0.98571,-0.64035 -1.1584,-1.1584 -0.1221,-0.36632 0.17269,-0.81303 0,-1.1584 -0.0863,-0.17269 -0.44268,0.13652 -0.5792,0 -0.25084,-0.25084 -0.90919,-1.94299 -1.1584,-2.3168 -0.42596,-0.63895 -1.39547,-1.05336 -1.7376,-1.7376 -0.0863,-0.17269 0.13652,-0.44268 0,-0.5792 -0.19213,-0.19213 -1.9748,-0.98741 -2.3168,-1.1584 -0.69504,-0.34752 -1.04256,-1.39008 -1.7376,-1.7376 -1.14199,-0.571 -2.93811,-0.0211 -4.0544,-0.5792 -1.18513,-0.59257 -2.27591,-1.13796 -3.4752,-1.7376 -0.92343,-0.46172 -3.21923,0.41758 -5.2128,-0.5792 -1.254,-0.627 -5.25148,-0.0129 -6.9504,-0.5792 -1.26179,0.21649 -0.19307,-0.96534 -0.5792,-1.1584 -0.51805,-0.25903 -1.21955,0.25902 -1.7376,0 -1.33793,-0.66897 -3.60946,-4.45717 -4.0544,-5.792 -0.12211,-0.36632 0.17268,-0.81304 0,-1.1584 -0.0863,-0.17269 -0.44268,0.13651 -0.5792,0 -0.34679,-0.34679 -0.84653,-2.27227 -1.1584,-2.896 -0.25903,-0.51806 0.25902,-1.21955 0,-1.73761 -0.0863,-0.17268 -0.44268,0.13652 -0.5792,0 -0.13652,-0.13651 0.13652,-0.44268 0,-0.5792 -0.23184,-0.23183 -0.73604,-0.31368 -1.1584,-1.1584 -1.08118,-2.16234 1.08117,-5.94645 0,-8.1088 -0.58019,-1.16037 -0.57998,-2.31835 -1.1584,-3.4752 -0.30688,-0.61376 0.21876,-1.66052 0,-2.3168 -0.44601,-1.33803 -0.88563,-2.69054 -1.1584,-4.0544 -0.22622,-1.13108 -0.36996,-12.00249 0,-12.7424 0.46747,-0.93495 1.29689,-1.21504 1.7376,-2.3168 0.3416,-0.85401 1.5746,-3.8186 1.7376,-4.6336 0.11359,-0.56795 -0.18316,-1.18812 0,-1.7376 0.0611,-0.18316 0.49286,0.17268 0.5792,0 0.17268,-0.34537 -0.12211,-0.79208 0,-1.1584 0.19998,-0.59995 0.87109,-1.16299 1.1584,-1.7376 0.44411,-0.88823 0.8229,-2.46871 1.1584,-3.4752 0.42504,-1.27514 -0.52981,-8.15819 0,-8.688 0.13652,-0.13652 0.44268,0.13651 0.5792,0 0.49766,-0.49767 0,-5.18249 0,-5.79201 0,-0.97961 0.60418,-5.76701 0,-6.3712 -0.0579,-0.0579 -1.67968,-0.0579 -1.7376,0 -0.59775,0.59775 -0.84163,1.68326 -1.1584,2.3168 -0.30507,0.61014 -4.98109,3.44622 -5.792,4.0544 -1.23228,0.92421 -2.50438,0.38339 -4.0544,1.1584 -0.77227,0.38614 -2.12374,-0.38613 -2.896,0 -0.6747,0.33735 -1.06291,0.82106 -1.7376,1.15841 -0.56287,0.28143 -7.19795,1.03462 -8.10881,0.5792 -0.91988,-0.45995 -3.43909,-1.17646 -4.6336,-0.5792 -0.48842,0.24421 -0.66997,0.91418 -1.1584,1.1584 -0.17268,0.0863 -0.49285,-0.17269 -0.5792,0 -0.17268,0.34536 0.27304,0.88536 0,1.1584 -0.27303,0.27303 -0.79208,-0.12211 -1.1584,0 -2.29162,0.76387 -0.008,3.4752 -4.0544,3.4752 -0.3893,0 -1.39577,0.17091 -1.7376,0 -3.01699,-1.5085 -1.68454,-4.42135 -2.3168,-6.95041 -0.16519,-0.66076 -0.9601,-1.5236 -1.1584,-2.3168 -0.26442,-1.0577 0.34424,-2.44249 0,-3.4752 -0.61588,-1.84764 -2.24874,-3.85023 -2.896,-5.792 -0.40544,-1.21632 0.40544,-2.83808 0,-4.0544 -0.93819,-2.81458 -1.05523,-5.58566 -2.3168,-8.1088 -0.46336,-0.92672 0.46336,-2.54848 0,-3.4752 -0.42236,-0.84472 -0.92656,-0.92656 -1.1584,-1.1584 -0.28999,-0.28999 -0.12127,-3.13855 -0.5792,-4.0544 -0.40881,-0.81762 -1.14017,-0.85969 -1.7376,-1.1584 -0.88709,-0.44355 -0.45294,-1.03214 -1.1584,-1.7376 -0.3152,-0.3152 -2.46003,-1.30163 -2.896,-1.7376 -0.13652,-0.13652 0.13652,-0.44268 0,-0.5792 -0.72069,-0.7207 -3.50702,0.30551 -4.0544,0.5792 -1.19515,0.59757 -0.24504,-1.82672 -1.7376,1.1584 -0.24672,0.49343 -0.13458,1.87218 -0.5792,2.3168 -0.13652,0.13652 -0.44268,-0.13652 -0.5792,0 -0.13652,0.13652 0.0863,0.40652 0,0.5792 -1.00827,2.01654 -3.74069,3.4752 -5.792,3.4752 -0.38614,0 -0.88536,0.27304 -1.1584,0 -0.30527,-0.30527 -0.27394,-0.85313 -0.5792,-1.1584 -0.2896,-0.2896 -1.448,0.2896 -1.7376,0 -0.13652,-0.13652 0.17268,-0.49286 0,-0.5792 -0.34537,-0.17268 -0.79208,0.12211 -1.1584,0 -0.99424,-0.33141 -1.90176,-1.98539 -2.896,-2.3168 -0.36632,-0.12211 -0.8495,0.23168 -1.1584,0 -0.55689,-0.41767 -0.66618,-1.24538 -1.1584,-1.7376 -0.43171,-0.43171 -1.30589,-0.14749 -1.7376,-0.5792 -0.30527,-0.30527 -0.27394,-0.85314 -0.5792,-1.1584 -0.35481,-0.3548 -1.51583,-0.49308 -1.7376,-1.1584 -0.12211,-0.36632 0.17268,-0.81303 0,-1.1584 -0.0351,-0.0702 -1.64382,-0.48542 -1.7376,-0.5792 -0.29738,-0.29737 -1.26577,-2.37049 -2.31681,-2.896 -0.46336,-0.23168 -1.27424,0.23168 -1.7376,0 -2.08488,-1.04245 -4.7946,-0.0805 -5.792,-0.5792 -0.48842,-0.24421 -0.64034,-0.98572 -1.1584,-1.1584 -0.73263,-0.24421 -1.56759,0.1873 -2.3168,0 -1.54111,-0.38528 -3.83461,-1.04851 -5.2128,-1.7376 -0.24421,-0.12211 -0.32017,-0.49286 -0.5792,-0.5792 -1.24703,-0.41568 -2.79645,-0.52943 -4.0544,-1.1584 -2.41049,-1.20525 0.61919,0.04 -0.5792,-1.1584 -0.13652,-0.13652 -0.44268,0.13652 -0.5792,0 -0.92376,-0.92377 -0.23463,-3.13064 -1.1584,-4.0544 -0.52305,-0.52305 -2.20589,-0.81335 -2.896,-1.1584 -0.84472,-0.42236 -0.92656,-0.92657 -1.1584,-1.1584 -0.13652,-0.13652 -0.44268,0.13651 -0.5792,0 -0.13652,-0.13652 0.13652,-0.44269 0,-0.5792 -0.3357,-0.33571 -1.9811,-0.8227 -2.3168,-1.1584 -0.87494,-0.87495 -1.9773,-2.55651 -2.896,-3.4752 -0.55299,-0.55299 -2.22804,-0.7131 -2.896,-1.15841 -1.24581,-0.83053 -1.41395,-1.82278 -2.896,-2.3168 -0.78458,-0.26152 -3.07825,-0.2147 -3.4752,0.5792 -0.91739,1.83478 0.91398,6.86004 0,8.68801 -0.0863,0.17268 -0.44268,-0.13652 -0.5792,0 -0.74338,0.74337 -0.41503,2.73182 -1.1584,3.4752 -0.13652,0.13652 -0.44268,-0.13652 -0.5792,0 -0.30527,0.30526 -0.27394,0.85313 -0.5792,1.1584 -0.13652,0.13652 -0.40652,-0.0863 -0.5792,0 -0.91935,0.45967 -1.35538,1.93458 -1.7376,2.3168 -0.13652,0.13652 -0.40652,-0.0863 -0.5792,0 -0.92672,0.46336 -1.39008,1.85344 -2.3168,2.3168 -0.75152,0.37576 -1.53434,0.76716 -2.3168,1.1584 -0.84715,0.42357 -2.92774,0.5792 -4.0544,0.5792 -0.80375,0 -2.71961,0.37779 -3.4752,0 -0.86216,-0.43108 -1.54446,-1.8019 -2.31681,-2.3168 -0.16064,-0.1071 -0.44268,0.13652 -0.5792,0 -0.30526,-0.30527 -0.33973,-0.7992 -0.5792,-1.1584 -0.3029,-0.45436 -1.1584,-0.61233 -1.1584,-1.1584 0,-0.19307 0.5792,0.19306 0.5792,0 0,-0.19307 -0.44268,0.13652 -0.5792,0 -0.30526,-0.30527 -0.44268,-0.74885 -0.5792,-1.1584 -0.31875,-0.95625 -0.54917,-1.98216 -1.1584,-2.896 -1.62908,-2.44363 0.99401,3.14642 -1.7376,-2.3168 -0.17268,-0.34537 0.17269,-0.81304 0,-1.1584 -0.32601,-0.65203 -2.25087,-1.41504 -2.896,-1.7376 -0.34536,-0.17269 -0.81303,0.17268 -1.1584,0 -0.48842,-0.24422 -0.66997,-0.91419 -1.1584,-1.1584 -0.17268,-0.0863 -0.44268,0.13651 -0.5792,0 -0.13652,-0.13652 0.13652,-0.44269 0,-0.5792 -0.13652,-0.13652 -0.44268,0.13651 -0.5792,0 -0.13652,-0.13652 0.13652,-0.44269 0,-0.5792 -0.33141,-0.33142 -1.46378,-0.33694 -1.7376,-1.15841 -0.2896,-0.8688 0.2896,-2.0272 0,-2.896 -0.35602,-1.06807 -1.25153,-2.50306 -1.7376,-3.4752 -0.0863,-0.17268 0,-0.38613 0,-0.5792 0,-0.38613 0.17269,-0.81303 0,-1.1584 -0.0863,-0.17268 -0.44268,0.13652 -0.5792,0 -0.13652,-0.13652 0.0863,-0.40651 0,-0.5792 -1.20524,-2.41049 0.04,0.61919 -1.1584,-0.5792 -0.35584,-0.35584 -0.38264,-1.34972 -1.1584,-1.7376 -1.11486,-0.55743 -2.75799,-0.88239 -3.4752,-2.3168 -0.42382,-0.84763 -0.17286,-2.08331 -0.5792,-2.896 -0.42236,-0.84472 -0.92656,-0.92656 -1.1584,-1.1584 -0.84298,-0.84298 -1.13766,-5.64682 -1.1584,-5.792 z"
     id="Pekalongan_Barat" />
  <path
     style="fill:url(#linearGradient9);stroke:url(#linearGradient12);stroke-width:5;stroke-dasharray:none;stroke-dashoffset:0"
     d="m 382.5256,403.82253 c 0,-1.09215 1.09215,-3.27645 0,-3.27645 -1.09215,0 -0.26489,4.33599 0,3.27645 0.53389,-2.13558 0.60007,-4.36253 0.81911,-6.55291 0.0543,-0.54336 -0.24421,-1.1498 0,-1.63822 0.12211,-0.24421 0.62605,0.19307 0.81911,0 0.47476,-0.47476 1.16347,-2.80169 1.63823,-3.27645 0.19306,-0.19307 0.62604,0.19307 0.81911,0 0.19307,-0.19307 0,-0.54608 0,-0.81911 0.27304,-0.27304 0.49783,-0.60493 0.81911,-0.81912 0.508,-0.33866 1.20652,-0.3874 1.63823,-0.81911 0.83503,-0.83503 -0.90195,-1.59681 0.81911,-2.45734 1.44222,-0.72111 3.53428,-0.12891 4.91468,-0.81911 0.95416,-0.47708 1.50317,-1.16114 2.45733,-1.63822 0.24422,-0.12211 0.62605,0.19306 0.81912,0 0.59694,-0.59695 0.0112,-3.28766 0.81911,-4.09557 0.19307,-0.19306 0.62605,0.19307 0.81911,0 0.54054,-0.54054 1.15719,-2.62637 2.45734,-3.27645 0.24421,-0.1221 0.62605,0.19307 0.81911,0 0.61053,-0.61053 0.34018,-1.73893 0.81912,-2.45734 0.84034,-1.26052 2.81903,-1.99992 3.27645,-2.45733 0.0822,-0.0822 2.9962,-4.63444 3.27645,-4.91468 0.43171,-0.43171 1.20651,-0.3874 1.63822,-0.81911 0.43171,-0.43171 0.4528,-1.1498 0.81911,-1.63823 4.4189,-5.89186 -0.90952,1.72864 3.27646,-2.45734 0.7176,-0.7176 1.98919,-3.15928 2.45733,-4.09556 0.98914,-1.97827 1.87353,-4.21765 2.45734,-6.5529 0.31953,-1.2781 -0.58536,-3.74396 0,-4.91468 0.12211,-0.24421 0.62605,0.19307 0.81911,0 0.45028,-0.45027 0.47504,-3.40741 0.81912,-4.09556 0.46053,-0.92106 2.13391,-1.48706 2.45733,-2.45734 0.87731,-2.6319 0.99986,-6.00489 2.45734,-8.19112 0.42838,-0.64257 1.20985,-0.99566 1.63823,-1.63823 0.49496,-0.74244 0.46793,-1.87219 1.63822,-2.45734 1.36978,-0.68488 3.11553,0.3291 4.09557,0.81912 1.3941,0.69705 4.47591,-0.0195 5.73378,0.81911 1.57743,1.05162 2.57661,2.95635 4.09557,4.09556 7.25152,5.43864 17.70931,20.22384 27.03071,15.56314 0.48843,-0.24421 1.1498,0.24421 1.63823,0 2.73841,-1.3692 5.55347,-2.77673 8.19113,-4.09556 1.25453,-0.62727 0.64056,-1.45967 1.63822,-2.45734 0.70273,-0.70273 6.12222,-2.42917 7.37201,-4.09556 0.51806,-0.69074 0.34018,-1.73893 0.81912,-2.45734 0.15145,-0.22718 0.62604,0.19307 0.81911,0 0.19307,-0.19307 -0.12211,-0.5749 0,-0.81911 0.55665,-1.11331 1.90068,-2.16315 2.45734,-3.27645 0.35026,-0.70053 0.46885,-1.75681 0.81911,-2.45734 0.34537,-0.69074 1.39401,-0.90559 1.63823,-1.63823 0.67387,-2.02163 -0.84306,-13.90096 0,-14.74402 0.0296,-0.0296 7.04302,1.47373 7.37201,1.63822 1.24951,0.62476 2.05482,1.84653 3.27645,2.45734 0.48842,0.24421 1.1498,-0.24421 1.63822,0 1.25454,0.62727 0.64056,1.45967 1.63823,2.45734 0.38613,0.38613 1.25209,-0.38614 1.63823,0 0.19306,0.19306 -0.19307,0.62604 0,0.81911 1.05482,1.05482 2.89951,0.22109 4.09556,0.81911 6.13904,3.06953 14.08948,2.45734 21.29693,2.45734 3.82252,0 7.64505,0 11.46757,0 0.27304,0 0.69701,0.24421 0.81912,0 0.24421,-0.48842 -0.24422,-1.1498 0,-1.63822 0.0799,-0.15971 1.46049,-0.64139 1.63822,-0.81912 0.87895,-0.87894 0.77799,-3.25589 2.45734,-4.09556 0.48842,-0.24421 1.1498,0.24421 1.63822,0 0.95417,-0.47708 1.50318,-1.16114 2.45734,-1.63823 0.56261,-0.2813 21.26193,-0.42705 22.11604,0 1.40854,0.70427 2.68703,0.93396 4.09557,1.63823 1.09215,0.54607 3.00341,-0.54608 4.09556,0 0.95416,0.47708 1.50318,1.16114 2.45734,1.63823 0.68837,0.34418 2.8004,0.34306 3.27645,0.81911 0.47475,0.47475 1.16347,2.80169 1.63822,3.27645 1.69478,1.69477 -0.0662,-2.58984 1.63823,0.81911 0.43371,0.86742 0.50174,2.32435 0.81911,3.27645 0.70961,2.12884 1.53995,3.899 2.45734,5.73379 0.99968,1.99936 0,18.85647 0,22.11604 0,1.44355 0.84868,8.16156 0,9.01024 -0.43171,0.43171 -1.20652,0.3874 -1.63823,0.81911 -0.98969,0.98969 -1.32448,4.60094 -2.45733,5.73379 -0.19307,0.19307 -0.62605,-0.19307 -0.81912,0 -0.5954,0.5954 -1.04282,3.50016 -1.63822,4.09556 -0.19307,0.19307 -0.5749,-0.1221 -0.81911,0 -0.89552,0.44776 -2.03439,2.43055 -2.45734,3.27645 -0.45889,0.91777 -1.33199,10.44182 -0.81911,11.46758 0.89951,1.79904 4.10156,2.46334 4.91467,3.27645 0.99767,0.99767 0.38369,1.83007 1.63823,2.45734 1.42776,0.71388 3.37588,0.30618 4.91467,0.81911 3.95586,1.31862 8.79422,3.16844 12.28669,4.91468 1.05056,0.52528 7.10243,0.26959 7.37201,0 0.43172,-0.43171 0.38741,-1.20652 0.81912,-1.63823 0.19306,-0.19306 0.5749,0.12211 0.81911,0 1.21472,-0.60736 4.49597,-3.65857 4.91468,-4.91467 0.36167,-1.08503 0.41258,-4.10161 0.81911,-4.91468 0.1221,-0.24421 0.54607,0 0.81911,0 0.27304,-0.54607 0.62605,-1.05902 0.81911,-1.63822 0.40956,-1.22867 -0.81911,-0.81912 0,-2.45734 0.0798,-0.1597 1.4605,-0.64138 1.63823,-0.81911 0.37865,-0.37865 -0.24728,-1.96278 0,-2.45734 0.75789,-1.51578 2.65498,-3.67174 3.27645,-4.91468 0.24421,-0.48842 -0.38613,-1.25209 0,-1.63822 0.40956,-0.40956 1.22867,-0.40956 1.63822,-0.81912 0.57921,-0.5792 -0.36631,-1.7247 0,-2.45733 0.12211,-0.24422 0.62605,0.19306 0.81912,0 0.82086,-0.82087 -0.54785,-3.81899 0,-4.91468 1.01218,-2.02436 0.81911,0.28274 0.81911,-1.63823 0,-0.57558 0.7343,-4.82986 0.81911,-4.91467 0.19307,-0.19307 0.62605,0.19307 0.81912,0 0.40955,-0.40956 -0.40956,-2.04778 0,-2.45734 0.19306,-0.19307 0.62604,0.19307 0.81911,0 0.19306,-0.19307 -0.12211,-0.5749 0,-0.81911 0.71821,-1.43642 2.53754,-2.61775 3.27645,-4.09556 0.56492,-1.12985 -0.99199,-0.73268 0.81911,-1.63823 0.6786,-0.3393 4.42795,-0.24336 4.91468,0 0.94985,0.47493 2.28702,2.25945 3.27645,2.45734 1.07094,0.21419 2.20551,-0.21419 3.27645,0 0.96533,0.19306 1.5234,1.32691 2.45734,1.63822 1.24171,0.41391 3.1361,-0.14034 4.09556,0.81912 0.43171,0.43171 0.3874,1.20651 0.81911,1.63822 0.61053,0.61053 1.73893,0.34017 2.45734,0.81911 1.56317,1.04212 2.53329,2.49532 4.09556,3.27645 1.09708,0.54855 1.13499,1.9541 1.63823,2.45734 0.73017,0.73018 2.40653,0.38416 3.27645,0.81911 0.34537,0.17269 0.45279,0.69701 0.81911,0.81912 0.77708,0.25902 1.7247,-0.36632 2.45734,0 1.8423,0.92115 0.77996,1.63822 3.27645,1.63822 0.84804,0 7.04513,0.98446 7.37201,1.63823 0.24422,0.48842 -0.24421,1.1498 0,1.63822 0.0756,0.15121 2.16663,0.67376 2.45734,0.81912 0.93905,0.46952 1.13939,1.70908 1.63823,2.45733 0.27303,0.27304 0.54607,0.54608 0.81911,0.81912 0.27304,0 0.62604,-0.19307 0.81911,0 0.38613,0.38613 -0.24421,1.1498 0,1.63822 0.34537,0.69074 1.29286,0.94749 1.63823,1.63823 0.1221,0.24421 -0.19307,0.62604 0,0.81911 0.19306,0.19307 0.5749,-0.12211 0.81911,0 0.98293,0.49147 1.4744,1.96587 2.45734,2.45734 0.48842,0.24421 1.1498,-0.24421 1.63822,0 0.69074,0.34537 0.94749,1.29285 1.63823,1.63822 1.91555,0.95778 3.81823,2.31868 5.73379,3.27645 3.40895,1.70448 -0.87566,-0.0565 0.81911,1.63823 0.38613,0.38613 1.1498,-0.24421 1.63822,0 1.30015,0.65007 1.9168,2.73591 2.45734,3.27645 0.43171,0.43171 1.20652,0.3874 1.63823,0.81911 1.71183,1.71184 -2.38989,7.82816 -3.27645,9.01024 -0.46336,0.61781 -0.99566,1.20985 -1.63823,1.63823 -0.22718,0.15145 -0.69701,-0.24422 -0.81911,0 -0.43298,0.86595 -0.36044,2.3591 -0.81911,3.27645 -0.34537,0.69073 -1.29286,0.94749 -1.63823,1.63822 -1.23817,2.47634 1.03185,11.64847 0,14.74403 -0.18885,0.56657 -1.15558,1.61617 -0.81911,2.45734 1.00624,2.5156 3.43241,4.71939 4.09556,7.37201 0.13244,0.52977 -0.24421,1.1498 0,1.63823 0.12211,0.24421 0.62605,-0.19307 0.81911,0 0.43272,0.43271 2.02462,3.66284 2.45734,4.09556 0.2579,0.25789 6.29501,1.38033 6.5529,1.63822 0.19307,0.19307 -0.19306,0.62605 0,0.81912 0.19307,0.19306 0.62605,-0.19307 0.81912,0 0.43171,0.43171 0.3874,1.20651 0.81911,1.63822 0.54054,0.54054 2.62637,1.15719 3.27645,2.45734 0.1221,0.24421 -0.19307,0.62605 0,0.81911 1.40838,1.40838 2.72542,0.95316 4.09556,1.63823 3.40895,1.70447 -0.87566,-0.0566 0.81911,1.63822 0.38614,0.38614 1.14981,-0.24421 1.63823,0 1.31058,0.65529 1.96587,2.62116 3.27645,3.27645 0.30753,0.15377 11.97916,0.15377 12.28669,0 0.34537,-0.17268 0.45279,-0.697 0.81911,-0.81911 1.92795,-0.64265 4.58899,0.49098 6.5529,0 0.37461,-0.0937 0.4528,-0.69701 0.81912,-0.81911 2.63682,-0.87894 6.9892,0 9.82935,0 0.56639,0 5.58882,-0.28994 5.73379,0 0.17525,0.35051 0.17525,4.56416 0,4.91467 -0.12211,0.24422 -0.5749,-0.1221 -0.81912,0 -0.93027,0.46514 -2.57644,1.75734 -3.27645,2.45734 -1.27757,1.27757 -0.18486,1.18884 -0.81911,2.45734 -0.8666,1.7332 -2.96655,2.96655 -4.09556,4.09556 -0.38614,0.38614 0.24421,1.1498 0,1.63823 -0.34537,0.69073 -1.29286,0.94749 -1.63823,1.63822 -0.82399,1.64798 0.44864,4.75837 0,6.5529 -0.65704,2.62816 -2.65505,5.14065 -1.63822,8.19113 0.63088,1.89266 2.43159,-0.0257 3.27645,0.81911 0.20208,0.20209 0.20208,4.7126 0,4.91468 -0.19307,0.19307 -0.62605,-0.19307 -0.81912,0 -0.19306,0.19307 0.19307,0.62605 0,0.81911 -2.02474,2.02475 -11.15342,-0.15707 -13.1058,0.81911 -0.95069,0.47535 -2.72489,1.35423 -3.27645,2.45734 -0.1221,0.24421 0.19307,0.62605 0,0.81911 -0.19306,0.19307 -0.62604,-0.19306 -0.81911,0 -1.14343,1.14343 0.91552,16.09303 0,18.8396 -2.069,6.20699 0.29578,-0.29578 -1.63823,1.63822 -0.53699,0.53699 -0.40873,2.86607 -0.81911,3.27645 -0.19307,0.19307 -0.62604,-0.19307 -0.81911,0 -0.19307,0.19307 0.1221,0.5749 0,0.81911 -0.39581,0.79163 -2.48483,2.88064 -3.27645,3.27645 -0.49643,0.24822 -2.1141,0.47587 -2.45734,0.81912 -0.43171,0.43171 -0.3874,1.20651 -0.81911,1.63822 -0.39852,0.39852 -3.14979,1.38491 -3.27645,1.63823 -0.24422,0.48842 0.17268,1.12017 0,1.63822 -0.54882,1.64646 -1.90852,-0.008 -2.45734,1.63823 -0.74205,2.22615 0.40432,3.28692 -0.81911,5.73379 -0.7281,1.4562 0.45506,0.45506 0.81911,0.81911 0.5792,0.5792 -0.25903,1.68026 0,2.45734 0.12211,0.36632 0.69701,0.45279 0.81911,0.81911 0.66651,1.99952 0.70025,3.85784 1.63823,5.73379 0.73363,1.46726 0.29216,3.33381 0.81911,4.91467 0.20718,0.62155 3.80416,7.89973 4.09556,8.19113 0.19307,0.19307 0.62605,-0.19307 0.81912,0 0.19306,0.19307 -0.19307,0.62605 0,0.81911 0.19306,0.19307 0.5749,-0.1221 0.81911,0 0.69073,0.34537 0.90559,1.39402 1.63822,1.63823 1.20795,0.40265 5.67178,-0.88112 6.5529,0 0.19307,0.19306 -0.19306,0.62604 0,0.81911 0.51958,0.51957 2.59447,-0.34099 3.27646,0 1.18262,0.59131 2.09382,1.04691 3.27645,1.63823 0.48842,0.24421 1.25209,-0.38614 1.63822,0 0.21682,0.21682 0,2.12005 0,2.45733 0,2.51114 0.94129,10.40411 0,12.28669 -0.78377,1.56755 -1.67356,3.34713 -2.45734,4.91468 -0.24421,0.48842 0.24422,1.1498 0,1.63822 -2.16247,4.32495 -8.2849,6.03809 -12.28669,7.37202 -0.76643,0.25548 -3.7062,0.0404 -4.09556,0.81911 -1.16245,2.3249 0.31103,5.93084 -0.81911,8.19113 -0.24421,0.48842 -1.1498,-0.24422 -1.63823,0 -1.18262,0.59131 -2.09382,1.04691 -3.27645,1.63822 -2.07908,1.03954 -12.81366,-1.11125 -13.92491,0 -1.50171,1.50171 1.5017,7.50853 0,9.01024 -0.38614,0.38613 -1.1498,-0.24421 -1.63823,0 -0.34537,0.17268 -0.45279,0.69701 -0.81911,0.81911 -0.42527,0.14176 -8.18678,-0.009 -8.19113,0 -1.45724,2.91448 1.45724,19.20157 0,22.11604 -0.73111,1.46223 -11.14997,0.50152 -11.46757,0.81912 -0.19307,0.19306 0.19306,0.62604 0,0.81911 -0.19307,0.19307 -0.62605,-0.19307 -0.81912,0 -1.72355,1.72355 0.46386,5.50186 -1.63822,6.5529 -1.90571,0.95286 -12.1013,-1.0045 -13.1058,0 -0.38614,0.38613 0.24421,1.1498 0,1.63823 -1.21895,2.4379 -3.17225,4.60205 -4.09557,7.37201 -0.65635,1.96907 -0.22583,7.07538 -2.45733,8.19113 -1.09247,0.54623 -2.95734,-0.4553 -4.09557,0 -1.13372,0.45349 -2.14272,1.18473 -3.27645,1.63822 -2.52235,1.00894 -6.59346,-1.20839 -9.01024,0 -0.38879,0.1944 -4.04423,2.40601 -4.09556,2.45734 -0.73899,0.73898 0.0737,3.23959 -1.63823,4.09556 -1.17283,0.58642 -4.30818,0 -5.73378,0 -0.0631,0 -4.00093,0.18927 -4.09557,0 -0.24421,-0.48842 0.24421,-1.1498 0,-1.63822 -0.36632,-0.73264 -1.63822,0 -2.45734,0 -1.13666,0 -3.8461,0.53428 -4.91467,0 -0.34537,-0.17269 -0.4528,-0.69701 -0.81911,-0.81912 -2.93206,-0.97735 -9.7355,1.2756 -12.28669,0 -3.47228,-1.73614 -7.77541,0.41162 -11.46758,-0.81911 -2.26657,-0.75552 -4.57782,-0.65068 -6.5529,-1.63822 -0.87372,-0.43686 -2.40273,0.43686 -3.27645,0 -2.20262,-1.10131 -4.32293,-2.16147 -6.5529,-3.27645 -1.96519,-0.9826 -8.5666,0.22182 -10.64847,-0.81912 -2.59459,-1.29729 -5.16746,-3.08767 -8.19112,-4.09556 -0.51806,-0.17268 -1.1498,0.24421 -1.63823,0 -1.1133,-0.55665 -2.16314,-1.90068 -3.27645,-2.45734 -0.68198,-0.34099 -2.75688,0.51958 -3.27645,0 -0.19307,-0.19306 0.19307,-0.62604 0,-0.81911 -0.19307,-0.19307 -0.5749,0.12211 -0.81911,0 -0.54123,-0.27061 -1.38845,-1.95778 -1.63823,-2.45734 -0.32764,-0.65529 0.32765,-1.80205 0,-2.45734 -0.1221,-0.24421 -0.62604,0.19307 -0.81911,0 -0.34021,-0.3402 -1.46563,-4.22428 -1.63822,-4.91467 -0.13245,-0.52977 0.24421,-1.1498 0,-1.63823 -0.32767,-0.65533 -7.64985,-2.19389 -9.01024,-4.91467 -1.20137,-2.40273 1.20136,-6.60751 0,-9.01024 -3.45488,-6.90975 -9.62005,6.15241 -11.46758,2.45734 -1.67612,-3.35224 -0.81911,-25.69169 -0.81911,-31.9454 0,-1.09583 0.70184,-6.67016 0,-7.37201 -0.19307,-0.19307 -0.62605,0.19307 -0.81912,0 -0.43171,-0.43171 -0.3874,-1.20652 -0.81911,-1.63823 -0.81911,-0.81911 -4.09556,0.81912 -4.91467,0 -0.75483,-0.75483 -0.38342,-6.74461 -1.63823,-7.37201 -1.46044,-0.73022 -8.6109,0 -10.64846,0 -1.29533,0 -11.27053,-0.19705 -11.46758,0 -0.72712,0.72712 -0.31255,3.90155 -0.81911,4.91468 -0.78114,1.56228 -0.038,0.89505 -0.81912,2.45733 -0.1221,0.24422 -0.62604,-0.19306 -0.81911,0 -0.54612,0.54612 0.32226,3.45105 0,4.09557 -0.1221,0.24421 -0.62604,-0.19307 -0.81911,0 -0.27253,0.27253 0.0551,3.11114 0,3.27645 -0.24421,0.73263 -1.39401,0.90559 -1.63823,1.63822 -0.32764,0.98294 0.32765,2.29352 0,3.27645 -0.54001,1.62004 -0.95771,2.73454 -1.63822,4.09557 -0.43686,0.87372 0.43686,2.40273 0,3.27645 -0.60605,1.21209 -3.70554,2.97417 -4.91468,3.27645 -1.84258,0.46064 -19.19693,0.64044 -20.47781,0 -0.69074,-0.34537 -0.94749,-1.29286 -1.63823,-1.63823 -0.48842,-0.24421 -1.25209,0.38614 -1.63822,0 -0.19307,-0.19306 0.1221,-0.5749 0,-0.81911 -0.34537,-0.69074 -1.29286,-0.94749 -1.63823,-1.63822 -0.24421,-0.48843 0.38613,-1.2521 0,-1.63823 -0.19307,-0.19307 -0.62604,0.19307 -0.81911,0 -1.19504,-1.19504 0.78813,-5.79575 0,-7.37201 -0.0799,-0.15971 -1.46049,-0.64138 -1.63823,-0.81912 -0.15093,-0.15093 -0.66818,-2.3064 -0.81911,-2.45733 -0.19307,-0.19307 -0.62605,0.19306 -0.81911,0 -0.19307,-0.19307 0.1221,-0.5749 0,-0.81912 -0.34537,-0.69073 -1.29286,-0.94749 -1.63823,-1.63822 -0.24728,-0.49456 0.37865,-2.07869 0,-2.45734 -0.32787,-0.32787 -1.04092,-0.44361 -1.63822,-1.63823 -0.12211,-0.24421 0.19306,-0.62604 0,-0.81911 -0.38614,-0.38613 -1.1498,0.24421 -1.63823,0 -1.40114,-0.70057 -1.44922,-2.09189 -3.27645,-2.45734 -1.96129,-0.39226 -12.28669,1.51047 -12.28669,-1.63822 0,-0.54608 -0.38613,-1.25209 0,-1.63823 0.43171,-0.43171 1.20652,-0.3874 1.63823,-0.81911 0.27304,-0.27304 0.54607,-0.54607 0.81911,-0.81911 0.54608,-0.27304 1.20652,-0.3874 1.63823,-0.81911 0.54054,-0.54055 1.15718,-2.62638 2.45733,-3.27645 0.24422,-0.12211 0.62605,0.19306 0.81912,0 3.19678,-3.19678 -0.18961,-0.43991 0.81911,-2.45734 1.74642,-3.49284 1.6147,-3.26469 4.91467,-4.91468 2.69492,-1.34745 9.99235,1.03782 13.10581,0 1.52813,-0.50938 2.04047,-1.02024 3.27645,-1.63822 0.48842,-0.24422 1.25209,0.38613 1.63822,0 1.26069,-1.26069 -2.17896,-3.26043 -2.45734,-4.09557 -0.57292,-1.71878 0.0693,-7.23346 -0.81911,-9.01024 -1.83126,-3.66252 -3.2362,-7.17079 -4.09556,-11.46757 -0.62574,-3.12869 0.56346,-6.2451 -0.81911,-9.01024 -0.90556,-1.8111 -0.50838,-0.25419 -1.63823,-0.81911 -2.23023,-1.11512 -3.18036,-3.24442 -5.73379,-4.09557 -1.322,-0.44066 -8.46917,0.54107 -9.01024,0 -1.934,-1.934 4.56878,0.43078 -1.63822,-1.63822 -1.01687,-0.33896 -0.89246,0.67242 -1.63823,-0.81912 -0.25427,-0.50853 -0.12013,-3.73516 0,-4.09556 0.24422,-0.73263 1.29286,-0.94749 1.63823,-1.63822 0.1221,-0.24422 -0.19307,-0.62605 0,-0.81912 0.43171,-0.43171 1.29956,-0.31112 1.63822,-0.81911 0.30291,-0.45436 -0.24421,-1.1498 0,-1.63822 0.12211,-0.24422 0.5749,0.1221 0.81912,0 0.88052,-0.44026 1.66977,-1.04756 2.45733,-1.63823 0.27304,-0.27304 0.54608,-0.54607 0.81912,-0.81911 0,-0.27304 -0.19307,-0.62605 0,-0.81911 0.47604,-0.47605 2.58807,-0.47493 3.27645,-0.81912 1.09708,-0.54854 1.13498,-1.9541 1.63822,-2.45734 0.43171,-0.43171 1.20652,-0.3874 1.63823,-0.81911 0.19306,-0.19306 -0.19307,-0.62604 0,-0.81911 0.19306,-0.19307 0.697,0.24421 0.81911,0 0.20688,-0.41376 -0.42408,-4.70263 0,-4.91468 0.48842,-0.24421 1.25209,0.38614 1.63823,0 0.43171,-0.43171 -0.81912,-1.02769 -0.81912,-1.63822 0,-1.37827 -1.03464,-4.52663 -1.63822,-5.73379 -0.27304,-0.54607 -1.36519,-0.27304 -1.63823,-0.81911 -0.24421,-0.48843 0.24421,-1.1498 0,-1.63823 -0.27304,-0.54607 -1.36519,-0.27304 -1.63822,-0.81911 -1.19857,-2.39713 -2.69759,-2.11872 -3.27645,-3.27645 -0.12211,-0.24421 0.19306,-0.62605 0,-0.81911 -0.19307,-0.19307 -0.62605,0.19306 -0.81912,0 -0.18718,-0.18719 -2.36376,-2.99574 -2.45733,-3.27645 -0.17269,-0.51806 0.24421,-1.1498 0,-1.63823 -0.27304,-0.54607 -1.36519,-0.27304 -1.63823,-0.81911 -0.41998,-0.83997 -0.39913,-2.43648 -0.81911,-3.27645 -0.88087,-1.76173 -2.11265,-2.11265 -3.27645,-3.27645 -0.69611,-0.69611 -0.94212,-1.76123 -1.63823,-2.45734 -0.34324,-0.34324 -1.9609,-0.5709 -2.45734,-0.81911 -0.98293,-0.49147 -1.4744,-1.96587 -2.45733,-2.45734 -0.24422,-0.12211 -0.62605,0.19307 -0.81912,0 -0.19306,-0.19307 0.19307,-0.62605 0,-0.81911 -0.40871,-0.40872 -3.45419,0 -4.09556,0 -2.69665,0 -7.22817,2.93881 -9.82935,1.63822 -1.56372,-0.78186 -4.09556,-5.02474 -4.09556,-3.27645 0,0.27304 0.81911,0.27304 0.81911,0 0,-0.61053 -0.54608,-1.09215 -0.81911,-1.63822 -1.0848,-2.16961 -2.39388,-4.34646 -3.27645,-6.55291 -1.1972,-2.99299 -1.15658,-6.40872 -2.45734,-9.01023 -0.34099,-0.68199 0.51957,-2.75688 0,-3.27645 -0.19307,-0.19307 -0.69701,0.24421 -0.81911,0 -0.24422,-0.48843 0.17268,-1.12018 0,-1.63823 -0.4815,-1.44448 -1.91058,-2.45528 -2.45734,-4.09556 -0.8159,-2.44771 0.19525,-12.48194 1.63822,-13.92492 0.19307,-0.19306 0.62605,0.19307 0.81912,0 0.90713,-0.90714 -0.44832,-4.38884 0,-5.73379 0.66597,-1.99793 0.97224,-3.73585 1.63822,-5.73378 0.70886,-2.1266 -0.43326,-3.22904 0.81911,-5.73379 0.76451,-1.52901 -0.7645,-4.20478 0,-5.73379 0.76419,-1.52838 0.81912,-2.12968 0.81912,-4.09556 0,-1.61185 2.16429,-7.51854 0.81911,-8.19113 -1.25322,-0.62661 -2.40816,0.38496 -3.27645,0.81911 -1.03415,0.51707 -4.12834,-0.78634 -4.91468,0 -0.19306,0.19307 0.19307,0.62605 0,0.81911 -0.38613,0.38614 -1.39401,-0.48842 -1.63822,0 -0.24422,0.48843 0.24421,1.14981 0,1.63823 -0.12211,0.24421 -0.5749,-0.12211 -0.81912,0 -2.33333,1.16667 -2.76153,3.10481 -5.73378,4.09556 -2.17277,0.72426 -13.83271,-0.91132 -14.74403,0 -0.19307,0.19307 0.19307,0.62605 0,0.81912 -0.19307,0.19306 -0.5749,-0.12211 -0.81911,0 -1.96891,0.98445 -3.82253,2.1843 -5.73379,3.27645 z"
     id="Pekalongan_Timur" />
</svg>
